<svg id="svg" version="1.1" xmlns="http://www.w3.org/2000/svg" xmlns:xlink="http://www.w3.org/1999/xlink" width="400" height="400" viewBox="0, 0, 400,400"><g id="svgg"><path id="path0" d="M192.400 51.064 C 191.850 51.149,190.680 51.405,189.800 51.633 C 188.920 51.860,186.850 52.203,185.200 52.394 C 179.398 53.065,165.327 58.845,160.776 62.426 C 159.993 63.042,158.823 63.678,158.176 63.838 C 157.529 63.998,156.765 64.460,156.477 64.865 C 156.190 65.269,155.764 65.600,155.530 65.600 C 155.058 65.600,154.191 66.409,147.702 72.900 C 141.388 79.218,141.486 79.109,140.931 80.430 C 140.655 81.085,139.735 82.472,138.886 83.511 C 138.038 84.550,136.745 86.570,136.015 88.000 C 135.284 89.430,134.465 90.870,134.194 91.200 C 133.923 91.530,133.487 92.466,133.226 93.280 C 132.965 94.095,132.314 95.404,131.780 96.191 C 131.247 96.977,130.701 98.111,130.567 98.710 C 130.433 99.310,129.896 101.150,129.374 102.800 C 127.548 108.560,126.009 117.786,126.034 122.820 C 126.058 127.756,125.794 127.682,135.875 125.570 C 137.897 125.147,140.169 124.800,140.925 124.800 C 141.681 124.800,142.997 124.557,143.850 124.260 C 144.702 123.964,146.835 123.603,148.588 123.458 C 152.371 123.146,152.725 122.864,153.221 119.764 C 154.025 114.736,154.360 113.238,154.923 112.139 C 155.243 111.512,155.631 110.245,155.784 109.323 C 155.937 108.401,156.304 107.445,156.600 107.200 C 156.896 106.955,157.250 106.086,157.388 105.269 C 157.749 103.132,161.206 97.676,164.458 94.109 C 165.306 93.179,166.000 92.230,166.000 92.000 C 166.000 91.771,166.495 91.370,167.100 91.110 C 167.705 90.849,168.744 90.088,169.409 89.418 C 172.200 86.606,177.593 83.096,181.200 81.745 C 185.481 80.141,186.233 79.902,189.400 79.136 C 193.952 78.035,205.023 77.666,208.028 78.515 C 209.223 78.853,211.010 79.256,212.000 79.411 C 214.037 79.731,221.039 82.530,222.019 83.417 C 222.373 83.738,222.931 84.000,223.259 84.000 C 223.587 84.000,224.821 84.720,226.000 85.600 C 227.179 86.480,228.305 87.200,228.500 87.200 C 229.342 87.200,236.825 95.292,238.857 98.400 C 242.398 103.815,242.503 104.007,244.090 108.000 C 245.102 110.545,245.747 112.989,246.043 115.400 C 246.758 121.223,247.437 123.199,248.728 123.206 C 249.318 123.210,251.492 123.570,253.561 124.006 C 255.629 124.443,257.837 124.800,258.466 124.800 C 259.096 124.800,261.454 125.239,263.706 125.776 C 269.543 127.167,273.272 127.477,273.975 126.630 C 274.586 125.894,274.343 118.593,273.622 116.000 C 273.408 115.230,273.046 113.068,272.817 111.196 C 272.589 109.324,272.026 106.804,271.567 105.596 C 271.108 104.388,270.476 102.473,270.164 101.340 C 269.851 100.206,268.967 98.006,268.198 96.451 C 267.429 94.895,266.800 93.285,266.800 92.873 C 266.800 92.461,266.456 91.813,266.036 91.433 C 265.616 91.052,265.158 90.286,265.018 89.730 C 264.879 89.175,264.439 88.243,264.041 87.660 C 261.989 84.654,259.600 80.914,259.600 80.708 C 259.600 79.784,246.217 66.527,244.302 65.553 C 243.366 65.077,242.150 64.346,241.600 63.928 C 239.849 62.598,236.426 60.462,235.652 60.217 C 235.242 60.086,234.584 59.624,234.191 59.190 C 233.798 58.755,233.217 58.400,232.900 58.400 C 232.583 58.400,231.035 57.795,229.462 57.056 C 227.888 56.318,225.319 55.330,223.753 54.861 C 222.187 54.392,220.700 53.762,220.449 53.459 C 220.198 53.157,218.799 52.787,217.340 52.638 C 215.881 52.488,212.899 52.014,210.714 51.583 C 206.992 50.849,195.827 50.533,192.400 51.064 M177.800 136.034 C 175.600 136.216,171.010 136.570,167.600 136.819 C 164.190 137.069,160.320 137.447,159.000 137.659 C 157.680 137.872,154.800 138.305,152.600 138.621 C 150.400 138.938,147.250 139.391,145.600 139.629 C 143.950 139.866,141.430 140.207,140.000 140.387 C 138.570 140.566,136.941 140.894,136.380 141.116 C 135.820 141.338,134.110 141.643,132.580 141.793 C 131.051 141.944,129.170 142.248,128.400 142.468 C 127.011 142.865,123.961 143.584,116.956 145.166 C 114.952 145.618,111.982 146.440,110.356 146.991 C 108.730 147.543,106.939 147.996,106.376 147.997 C 105.813 147.999,103.134 148.806,100.422 149.792 C 97.710 150.778,94.841 151.698,94.045 151.837 C 92.407 152.123,91.097 152.841,89.500 154.327 L 88.400 155.350 88.400 174.695 C 88.400 190.298,88.506 194.249,88.949 195.120 C 89.294 195.799,89.601 198.427,89.776 202.200 C 89.929 205.500,90.301 209.190,90.603 210.400 C 90.904 211.610,91.335 214.283,91.560 216.340 C 91.785 218.397,92.155 220.305,92.384 220.580 C 92.612 220.856,92.906 221.963,93.037 223.040 C 93.168 224.118,93.598 225.990,93.994 227.200 C 94.389 228.410,94.838 230.336,94.991 231.480 C 95.144 232.624,95.524 233.771,95.835 234.029 C 96.146 234.287,96.400 234.823,96.400 235.220 C 96.400 235.617,96.954 237.440,97.631 239.271 C 98.308 241.102,99.077 243.410,99.340 244.400 C 99.603 245.390,100.104 246.740,100.453 247.400 C 100.802 248.060,101.208 249.102,101.356 249.716 C 101.503 250.330,102.225 252.130,102.960 253.716 C 103.695 255.302,104.417 257.270,104.564 258.089 C 104.712 258.908,105.092 259.723,105.409 259.901 C 105.726 260.078,106.679 261.568,107.527 263.212 C 110.772 269.502,112.369 272.337,114.941 276.374 C 116.403 278.670,117.600 280.721,117.600 280.934 C 117.600 281.146,118.230 281.931,119.000 282.679 C 119.770 283.427,120.400 284.395,120.400 284.832 C 120.400 285.268,120.681 285.733,121.025 285.865 C 121.368 285.997,122.262 287.014,123.010 288.126 C 123.759 289.238,125.006 290.879,125.781 291.774 C 129.239 295.766,130.400 297.289,130.400 297.833 C 130.400 298.154,130.843 298.619,131.385 298.866 C 131.926 299.113,132.808 299.964,133.343 300.757 C 134.431 302.368,140.700 308.800,141.182 308.800 C 141.352 308.800,141.990 309.520,142.600 310.400 C 143.210 311.280,143.895 312.000,144.122 312.000 C 144.350 312.000,145.728 313.125,147.185 314.500 C 148.643 315.875,151.135 318.080,152.724 319.400 C 154.313 320.720,156.375 322.473,157.307 323.295 C 158.238 324.117,159.203 324.792,159.451 324.795 C 159.699 324.798,160.141 325.088,160.434 325.441 C 160.726 325.793,161.890 326.673,163.021 327.396 C 165.433 328.939,168.829 331.462,169.400 332.134 C 169.620 332.394,170.970 333.206,172.400 333.940 C 173.830 334.674,175.540 335.769,176.200 336.373 C 176.860 336.977,178.390 337.974,179.600 338.589 C 180.810 339.204,182.229 340.043,182.754 340.453 C 183.279 340.864,183.968 341.200,184.287 341.200 C 184.605 341.200,185.886 341.797,187.133 342.526 C 189.784 344.077,193.778 346.000,194.347 346.000 C 194.565 346.000,195.031 346.289,195.384 346.641 C 197.148 348.405,202.647 348.630,204.005 346.994 C 204.280 346.663,205.197 346.282,206.044 346.147 C 206.892 346.011,207.784 345.660,208.028 345.366 C 208.272 345.072,209.660 344.253,211.112 343.545 C 212.564 342.838,214.930 341.571,216.370 340.730 C 217.809 339.888,219.286 339.200,219.651 339.200 C 220.016 339.200,220.412 338.947,220.530 338.638 C 220.649 338.328,221.310 337.951,222.000 337.800 C 222.690 337.649,223.349 337.276,223.466 336.973 C 223.582 336.669,224.965 335.637,226.539 334.680 C 228.112 333.723,230.077 332.503,230.904 331.970 C 233.744 330.138,241.401 324.350,243.067 322.776 C 243.984 321.909,244.950 321.200,245.215 321.200 C 245.629 321.200,248.965 318.333,254.518 313.202 C 255.353 312.431,258.323 309.467,261.118 306.616 C 263.913 303.764,266.920 300.700,267.800 299.806 C 268.680 298.911,269.645 297.709,269.944 297.134 C 270.243 296.559,270.915 295.859,271.437 295.580 C 271.960 295.301,272.492 294.741,272.620 294.337 C 272.841 293.642,277.102 287.914,278.670 286.205 C 279.072 285.768,279.696 284.755,280.058 283.954 C 280.420 283.154,280.899 282.386,281.122 282.248 C 281.792 281.834,286.625 274.348,288.586 270.685 C 289.083 269.758,290.025 268.010,290.681 266.800 C 294.407 259.924,295.585 257.543,295.971 256.107 C 296.208 255.229,296.860 253.834,297.420 253.009 C 297.980 252.183,298.535 250.944,298.653 250.254 C 298.957 248.480,299.635 246.800,300.049 246.800 C 300.242 246.800,300.400 246.518,300.400 246.172 C 300.400 245.436,303.430 235.950,304.224 234.200 C 304.523 233.540,304.970 231.830,305.217 230.400 C 305.463 228.970,305.913 227.260,306.217 226.600 C 306.521 225.940,307.041 223.780,307.373 221.800 C 307.706 219.820,308.347 216.220,308.798 213.800 C 309.249 211.380,309.889 206.700,310.221 203.400 C 310.553 200.100,310.998 196.770,311.210 196.000 C 311.434 195.186,311.596 186.027,311.598 174.132 L 311.600 153.664 310.300 153.399 C 309.024 153.139,303.774 151.479,302.200 150.838 C 300.707 150.230,296.672 149.093,289.200 147.176 C 288.210 146.922,286.860 146.477,286.200 146.187 C 285.540 145.897,284.158 145.547,283.129 145.409 C 282.099 145.272,280.259 144.809,279.039 144.380 C 277.818 143.951,276.230 143.599,275.510 143.598 C 274.789 143.596,273.701 143.335,273.090 143.016 C 272.480 142.698,270.860 142.320,269.490 142.176 C 268.121 142.033,265.470 141.592,263.600 141.197 C 261.730 140.802,258.940 140.356,257.400 140.205 C 255.860 140.054,253.430 139.694,252.000 139.404 C 250.570 139.115,248.230 138.764,246.800 138.624 C 245.370 138.485,242.940 138.107,241.400 137.785 C 233.869 136.210,190.201 135.008,177.800 136.034 M210.140 173.053 C 213.136 174.198,218.000 177.043,218.000 177.651 C 218.000 177.850,218.628 178.312,219.396 178.679 C 220.164 179.045,220.899 179.681,221.029 180.092 C 221.160 180.503,221.837 181.440,222.533 182.173 C 224.237 183.966,225.701 186.428,227.065 189.800 C 228.483 193.304,228.764 206.661,227.469 209.000 C 227.104 209.660,226.804 210.441,226.802 210.735 C 226.792 212.909,219.930 221.514,216.500 223.654 C 215.785 224.100,215.200 224.696,215.200 224.978 C 215.200 225.502,217.936 227.599,218.622 227.601 C 221.959 227.609,233.721 240.526,234.647 245.200 C 234.800 245.970,235.156 246.780,235.438 247.000 C 235.720 247.220,236.132 248.300,236.354 249.400 C 236.576 250.500,237.038 252.384,237.379 253.587 C 238.238 256.613,238.237 264.284,237.377 265.511 L 236.755 266.400 200.431 266.400 L 164.108 266.400 162.999 265.528 L 161.891 264.656 162.105 259.628 C 162.328 254.416,163.368 249.287,164.834 246.174 C 165.255 245.279,165.600 244.361,165.600 244.133 C 165.600 243.168,170.083 236.765,172.250 234.635 C 175.130 231.805,179.908 228.000,180.583 228.000 C 181.274 228.000,184.800 225.424,184.800 224.919 C 184.800 224.619,184.170 224.001,183.400 223.547 C 182.630 223.093,182.000 222.556,182.000 222.354 C 182.000 222.152,181.415 221.703,180.700 221.356 C 179.430 220.740,179.021 220.274,176.639 216.728 C 176.000 215.778,175.143 214.509,174.733 213.909 C 172.520 210.664,171.842 207.409,171.835 200.000 L 171.829 193.000 173.158 189.800 C 173.889 188.040,174.716 186.330,174.995 186.000 C 175.275 185.670,175.822 184.770,176.211 184.000 C 176.885 182.665,182.405 176.800,182.987 176.800 C 183.140 176.800,184.195 176.189,185.332 175.442 C 191.502 171.390,202.912 170.292,210.140 173.053 " stroke="none" fill="#f6fafb" fill-rule="evenodd"></path><path id="path1" d="M0.000 200.000 L 0.000 400.000 200.000 400.000 L 400.000 400.000 400.000 200.000 L 400.000 0.000 200.000 0.000 L 0.000 0.000 0.000 200.000 M205.822 47.392 C 207.594 47.510,210.060 47.963,211.303 48.400 C 212.545 48.836,215.325 49.463,217.481 49.792 C 223.255 50.674,227.838 51.871,229.766 53.001 C 230.703 53.551,231.747 54.000,232.084 54.000 C 232.851 54.000,236.265 55.494,237.600 56.414 C 238.150 56.793,240.310 58.157,242.400 59.445 C 246.187 61.778,249.944 64.761,252.924 67.800 C 258.165 73.145,259.589 74.733,260.153 75.865 C 260.500 76.560,261.305 77.550,261.941 78.065 C 263.721 79.504,266.026 83.086,267.297 86.388 C 267.930 88.031,268.599 89.561,268.784 89.788 C 269.760 90.984,273.510 98.803,273.706 100.051 C 273.831 100.849,274.309 102.277,274.767 103.226 C 275.301 104.332,275.602 105.748,275.605 107.175 C 275.608 108.399,275.968 110.541,276.405 111.936 C 276.843 113.331,277.200 115.594,277.200 116.969 C 277.200 118.343,277.404 120.484,277.654 121.728 C 278.967 128.265,271.837 133.015,266.000 129.491 C 264.904 128.829,263.861 128.629,261.200 128.571 C 259.330 128.530,256.990 128.223,256.000 127.889 C 255.010 127.555,252.852 127.158,251.204 127.007 C 246.171 126.546,243.200 123.967,243.200 120.059 C 243.200 117.438,242.398 114.348,241.140 112.120 C 240.493 110.977,239.800 109.029,239.599 107.792 C 239.339 106.197,238.879 105.140,238.016 104.157 C 237.347 103.396,236.800 102.586,236.800 102.358 C 236.800 102.130,236.280 101.188,235.643 100.263 C 235.007 99.338,234.207 97.956,233.865 97.191 C 233.092 95.460,231.843 94.000,231.136 94.000 C 230.019 93.999,224.295 90.108,221.664 87.559 C 219.874 85.826,212.832 83.148,207.200 82.060 C 198.696 80.416,197.674 80.424,192.493 82.169 C 190.258 82.921,187.442 83.742,186.235 83.993 C 185.028 84.243,183.446 84.848,182.720 85.336 C 181.994 85.824,179.913 87.091,178.095 88.152 C 172.273 91.551,165.766 97.778,163.711 101.915 C 162.915 103.519,161.889 105.236,161.432 105.732 C 160.974 106.227,160.538 107.155,160.461 107.794 C 160.385 108.433,159.919 109.505,159.426 110.178 C 158.620 111.278,156.840 119.091,156.780 121.800 C 156.703 125.225,152.658 127.036,143.400 127.791 C 138.281 128.208,133.581 129.146,131.065 130.250 C 128.547 131.357,127.135 131.328,124.603 130.121 C 122.509 129.122,121.851 120.664,123.186 111.899 C 124.698 101.967,125.116 100.431,126.783 98.699 C 127.353 98.107,128.275 96.012,129.061 93.524 C 130.037 90.431,130.997 88.406,132.756 85.732 C 134.063 83.745,135.365 81.342,135.649 80.393 C 135.976 79.301,136.544 78.450,137.195 78.077 C 137.761 77.752,138.668 76.849,139.212 76.070 C 140.202 74.650,142.185 72.587,145.842 69.171 C 146.919 68.165,148.396 66.589,149.125 65.668 C 150.531 63.891,155.803 60.256,158.800 58.995 C 159.790 58.579,161.514 57.667,162.631 56.968 C 166.858 54.325,173.078 51.946,176.359 51.718 C 178.550 51.565,180.071 51.188,181.800 50.368 C 184.119 49.268,192.253 47.387,196.000 47.085 C 197.822 46.938,199.979 47.005,205.822 47.392 M226.400 132.929 C 241.824 134.045,244.440 134.321,248.000 135.201 C 249.870 135.664,253.200 136.209,255.400 136.413 C 257.600 136.617,260.284 137.057,261.364 137.392 C 262.444 137.726,264.116 138.000,265.080 138.000 C 267.169 138.000,271.448 138.849,277.200 140.404 C 279.510 141.028,282.059 141.648,282.866 141.781 C 283.672 141.914,285.333 142.558,286.558 143.212 C 287.922 143.940,289.383 144.400,290.329 144.400 C 292.985 144.400,298.572 145.266,299.200 145.774 C 300.285 146.654,306.169 148.736,308.923 149.216 C 312.049 149.760,312.372 150.150,313.449 154.684 C 314.154 157.653,313.942 206.610,313.218 207.971 C 313.034 208.317,312.673 210.670,312.416 213.200 C 312.159 215.730,311.488 219.330,310.925 221.200 C 310.361 223.070,309.577 226.697,309.181 229.261 C 308.785 231.824,308.199 234.434,307.878 235.061 C 307.557 235.687,307.164 236.988,307.003 237.951 C 306.676 239.919,304.826 244.616,303.591 246.615 C 302.636 248.159,299.600 256.498,299.600 257.575 C 299.600 257.981,298.897 259.163,298.039 260.203 C 296.934 261.539,296.397 262.635,296.203 263.946 C 295.602 268.007,292.921 273.114,289.666 276.400 C 289.121 276.950,287.987 278.859,287.146 280.642 C 286.174 282.700,284.956 284.524,283.808 285.636 C 282.814 286.600,282.000 287.526,282.000 287.695 C 282.000 288.562,279.573 291.709,277.947 292.950 C 276.928 293.728,275.369 295.513,274.483 296.916 C 273.596 298.319,272.199 300.172,271.378 301.034 C 270.556 301.895,269.010 303.705,267.941 305.054 C 265.820 307.734,264.473 308.800,263.209 308.800 C 262.604 308.800,262.144 309.357,261.448 310.929 C 260.931 312.100,259.988 313.448,259.353 313.925 C 258.012 314.932,257.860 315.074,256.000 317.030 C 255.230 317.839,253.070 319.497,251.200 320.713 C 247.344 323.220,246.936 323.560,242.800 327.722 C 240.707 329.828,239.107 331.044,237.507 331.745 C 236.246 332.298,234.796 333.168,234.284 333.679 C 233.773 334.190,232.604 334.947,231.686 335.361 C 230.769 335.775,229.763 336.503,229.451 336.979 C 229.139 337.455,227.740 338.443,226.342 339.175 C 224.944 339.907,222.990 341.163,222.000 341.965 C 218.657 344.673,214.112 346.800,211.666 346.800 C 210.946 346.800,210.139 347.229,209.393 348.007 C 208.571 348.865,207.157 349.560,204.513 350.407 C 198.565 352.313,196.697 352.013,189.944 348.065 C 187.631 346.714,185.123 345.500,184.370 345.369 C 182.879 345.110,180.280 343.981,180.067 343.500 C 179.993 343.335,179.685 343.200,179.381 343.200 C 179.077 343.200,178.177 342.628,177.381 341.930 C 176.586 341.231,175.042 340.246,173.950 339.740 C 171.477 338.594,163.080 332.409,161.200 330.347 C 160.430 329.503,158.975 328.469,157.967 328.049 C 156.959 327.629,155.646 326.834,155.051 326.282 C 154.455 325.730,153.519 325.166,152.969 325.028 C 150.272 324.351,143.200 317.323,143.200 315.320 C 143.200 314.814,143.023 314.400,142.808 314.400 C 140.774 314.400,131.310 305.626,129.191 301.777 C 128.158 299.899,127.426 299.113,125.937 298.282 C 123.591 296.972,120.670 293.127,119.822 290.232 C 119.406 288.813,118.795 287.843,117.796 287.016 C 117.009 286.365,115.835 285.015,115.188 284.016 C 114.541 283.017,113.128 281.090,112.048 279.733 C 110.798 278.162,109.624 276.044,108.816 273.904 C 108.118 272.055,106.830 269.595,105.953 268.436 C 104.847 266.974,104.223 265.636,103.914 264.065 C 103.478 261.846,102.118 258.989,99.981 255.800 C 99.391 254.920,98.418 252.490,97.819 250.400 C 97.221 248.310,96.206 245.366,95.566 243.859 C 94.925 242.351,94.121 240.037,93.779 238.717 C 93.437 237.397,92.704 235.633,92.151 234.797 C 91.376 233.627,91.066 232.465,90.800 229.739 C 90.611 227.792,90.012 224.490,89.469 222.400 C 88.926 220.310,88.196 216.602,87.846 214.160 C 87.496 211.719,86.907 209.019,86.537 208.160 C 85.942 206.779,85.831 203.705,85.575 181.400 C 85.416 167.540,85.154 155.608,84.995 154.884 C 84.569 152.952,86.867 150.884,91.277 149.229 C 93.105 148.544,95.770 147.455,97.200 146.809 C 98.630 146.164,101.240 145.344,103.000 144.987 C 109.608 143.648,113.471 142.669,115.759 141.753 C 118.542 140.638,123.293 139.600,125.609 139.600 C 126.512 139.600,128.095 139.243,129.126 138.807 C 130.157 138.370,133.970 137.556,137.600 136.997 C 141.230 136.439,145.100 135.817,146.200 135.615 C 147.300 135.413,149.107 135.237,150.216 135.224 C 151.325 135.211,153.305 134.906,154.616 134.546 C 156.983 133.896,159.865 133.659,175.573 132.823 C 180.068 132.584,183.788 132.345,183.840 132.294 C 184.285 131.849,218.538 132.360,226.400 132.929 M197.216 174.715 C 195.626 174.978,192.665 176.250,190.611 177.552 C 189.560 178.219,187.740 178.963,186.567 179.207 C 184.781 179.578,184.294 179.877,183.568 181.052 C 183.091 181.823,182.040 182.892,181.231 183.427 C 179.968 184.263,179.692 184.728,179.281 186.721 C 179.017 187.997,178.238 189.929,177.550 191.015 C 174.626 195.626,174.305 204.443,176.921 208.327 C 177.466 209.137,178.204 210.706,178.560 211.813 C 179.226 213.885,182.706 217.714,186.700 220.767 C 188.677 222.279,189.220 226.141,187.700 227.877 C 186.794 228.910,179.419 233.677,177.600 234.404 C 174.339 235.708,173.717 236.296,173.446 238.334 C 173.280 239.586,172.571 241.258,171.396 243.162 C 170.408 244.765,169.600 246.166,169.600 246.276 C 169.600 246.386,169.267 246.954,168.859 247.538 C 167.066 250.108,165.462 257.803,166.149 260.540 C 166.483 261.869,168.442 262.427,172.679 262.400 C 174.396 262.389,188.400 262.477,203.800 262.597 C 237.628 262.860,233.844 263.755,233.701 255.520 C 233.588 248.999,232.741 245.666,230.995 244.871 C 229.560 244.217,226.827 240.511,226.285 238.486 C 225.910 237.085,225.405 236.393,224.002 235.358 C 223.011 234.627,221.600 233.528,220.867 232.915 C 220.133 232.302,218.069 231.080,216.280 230.200 C 212.722 228.450,211.045 225.853,212.322 224.071 C 212.586 223.702,212.981 222.986,213.199 222.479 C 213.417 221.973,214.119 221.073,214.758 220.479 C 216.463 218.896,220.429 213.958,220.926 212.800 C 221.162 212.250,221.572 211.530,221.837 211.200 C 223.647 208.946,224.691 205.374,225.474 198.747 C 225.748 196.428,224.591 193.116,222.418 189.995 C 221.573 188.782,220.681 187.043,220.435 186.131 C 220.144 185.051,219.468 184.027,218.494 183.195 C 217.672 182.492,216.089 181.075,214.976 180.047 C 213.817 178.977,212.194 177.939,211.176 177.617 C 210.199 177.309,208.740 176.733,207.933 176.337 C 205.953 175.366,199.337 174.364,197.216 174.715 " stroke="none" fill="#0474d4" fill-rule="evenodd"></path><path id="path2" d="M192.800 49.858 C 189.161 50.097,182.988 50.906,182.600 51.195 C 182.380 51.358,181.435 51.589,180.499 51.708 C 179.564 51.827,177.764 52.326,176.499 52.817 C 175.235 53.308,173.300 54.057,172.200 54.482 C 168.530 55.899,163.291 58.478,161.054 59.969 C 160.203 60.536,158.853 61.371,158.054 61.824 C 157.254 62.277,156.365 63.132,156.078 63.724 C 155.728 64.446,155.242 64.800,154.600 64.800 C 154.065 64.800,152.975 65.415,152.122 66.198 C 151.285 66.967,150.465 67.597,150.300 67.598 C 149.963 67.600,149.872 67.692,145.307 72.635 C 143.497 74.596,141.472 76.750,140.807 77.422 C 140.143 78.094,139.600 78.863,139.600 79.131 C 139.600 79.399,138.911 80.379,138.070 81.309 C 136.690 82.834,135.999 83.901,133.867 87.800 C 132.983 89.417,131.600 92.667,131.600 93.129 C 131.600 93.334,131.328 93.728,130.996 94.003 C 130.664 94.279,130.112 95.468,129.770 96.645 C 129.428 97.822,128.997 98.878,128.814 98.991 C 128.630 99.105,128.259 100.143,127.987 101.299 C 127.716 102.454,127.383 103.580,127.247 103.800 C 127.112 104.020,126.797 105.280,126.549 106.600 C 126.300 107.920,125.801 110.313,125.439 111.919 C 123.447 120.761,124.117 129.079,126.808 128.916 C 129.524 128.751,137.687 127.404,144.400 126.014 C 145.390 125.809,147.689 125.523,149.508 125.378 C 154.288 124.998,154.522 124.738,154.851 119.433 C 154.996 117.097,155.308 114.951,155.546 114.665 C 155.783 114.379,156.183 113.168,156.434 111.973 C 156.685 110.778,157.127 109.530,157.416 109.200 C 157.705 108.870,158.368 107.425,158.889 105.988 C 159.897 103.209,163.497 97.647,166.001 95.000 C 166.833 94.120,167.636 92.995,167.784 92.500 C 167.932 92.005,168.284 91.600,168.565 91.600 C 168.846 91.600,169.402 91.240,169.800 90.800 C 170.198 90.360,170.770 90.000,171.071 90.000 C 171.372 90.000,172.379 89.303,173.309 88.452 C 174.239 87.600,175.810 86.497,176.800 86.000 C 177.790 85.502,179.050 84.780,179.600 84.394 C 187.272 79.011,206.387 78.160,216.400 82.756 C 217.390 83.211,218.676 83.586,219.257 83.591 C 219.839 83.596,220.415 83.862,220.538 84.182 C 220.661 84.502,221.445 85.114,222.281 85.543 C 223.116 85.971,224.250 86.717,224.800 87.200 C 225.350 87.683,226.430 88.408,227.200 88.812 C 229.627 90.083,234.874 95.592,237.476 99.600 C 238.832 101.690,240.289 103.786,240.713 104.257 C 241.137 104.728,241.598 105.825,241.737 106.694 C 241.876 107.563,242.382 109.158,242.862 110.237 C 243.954 112.695,244.772 116.121,245.193 120.000 C 245.741 125.050,245.772 125.107,247.932 125.111 C 250.743 125.115,263.168 127.073,267.384 128.176 C 268.695 128.519,270.347 128.800,271.055 128.800 C 271.764 128.800,272.613 129.070,272.943 129.400 C 275.696 132.153,276.706 117.332,274.225 110.600 C 273.901 109.720,273.627 108.095,273.618 106.989 C 273.608 105.883,273.342 104.609,273.026 104.159 C 272.711 103.709,272.072 101.848,271.606 100.025 C 271.141 98.202,270.229 95.715,269.580 94.499 C 268.931 93.282,268.400 92.037,268.400 91.731 C 268.400 91.425,268.150 91.079,267.845 90.962 C 267.540 90.845,267.179 90.196,267.044 89.521 C 266.909 88.846,266.174 87.425,265.411 86.363 C 264.648 85.300,263.763 83.808,263.445 83.047 C 263.127 82.285,262.409 81.362,261.849 80.995 C 261.289 80.629,260.708 79.940,260.558 79.464 C 260.408 78.989,259.956 78.369,259.555 78.086 C 259.153 77.803,258.521 76.933,258.151 76.152 C 257.780 75.372,257.055 74.573,256.539 74.377 C 256.022 74.180,255.599 73.880,255.597 73.710 C 255.591 73.132,250.038 67.640,248.827 67.014 C 248.165 66.672,247.432 66.034,247.198 65.596 C 246.964 65.158,246.495 64.800,246.157 64.800 C 245.818 64.800,244.895 64.080,244.105 63.200 C 243.315 62.320,242.460 61.600,242.205 61.600 C 241.951 61.600,240.585 60.792,239.171 59.804 C 237.757 58.817,236.217 58.007,235.749 58.004 C 235.281 58.002,234.689 57.748,234.433 57.439 C 234.177 57.131,233.491 56.759,232.908 56.613 C 232.325 56.466,231.384 56.016,230.816 55.612 C 230.248 55.207,228.797 54.575,227.592 54.207 C 226.386 53.839,224.140 53.100,222.600 52.567 C 221.060 52.033,219.299 51.597,218.687 51.598 C 218.075 51.599,216.933 51.332,216.149 51.004 C 213.488 49.893,201.343 49.296,192.800 49.858 M214.510 51.110 C 215.121 51.373,216.824 51.780,218.295 52.015 C 219.766 52.250,221.182 52.619,221.442 52.835 C 221.702 53.051,223.239 53.592,224.858 54.038 C 226.476 54.484,228.742 55.378,229.894 56.024 C 231.046 56.671,232.277 57.200,232.631 57.200 C 232.984 57.200,233.731 57.560,234.291 58.000 C 234.850 58.440,235.527 58.800,235.794 58.800 C 236.061 58.800,237.005 59.325,237.890 59.967 C 238.776 60.608,240.231 61.506,241.124 61.961 C 242.017 62.417,242.998 63.147,243.304 63.585 C 243.611 64.022,244.415 64.613,245.092 64.898 C 245.769 65.182,246.835 65.910,247.461 66.514 C 252.462 71.337,257.635 76.664,258.800 78.188 C 259.570 79.196,260.740 80.673,261.400 81.470 C 262.747 83.096,264.277 85.597,265.799 88.660 C 266.362 89.793,267.087 90.940,267.411 91.209 C 267.735 91.478,268.000 92.051,268.000 92.483 C 268.000 92.915,268.620 94.528,269.379 96.067 C 270.137 97.606,270.976 99.885,271.244 101.133 C 271.511 102.380,271.950 103.670,272.219 104.000 C 272.488 104.330,272.932 106.220,273.206 108.200 C 273.480 110.180,273.887 112.250,274.111 112.800 C 275.414 116.003,275.047 129.564,273.672 128.977 C 273.303 128.819,270.390 128.172,267.200 127.539 C 264.010 126.906,260.847 126.210,260.172 125.994 C 259.496 125.777,258.416 125.601,257.772 125.603 C 256.221 125.606,248.436 124.393,247.334 123.976 C 246.382 123.616,245.966 122.059,245.226 116.084 C 244.976 114.067,244.355 111.717,243.641 110.084 C 242.995 108.608,242.344 106.737,242.194 105.926 C 242.044 105.116,241.579 104.143,241.160 103.764 C 240.742 103.386,240.400 102.930,240.400 102.752 C 240.400 102.574,239.855 101.657,239.189 100.714 C 238.523 99.771,237.278 98.010,236.422 96.800 C 234.877 94.617,228.742 88.404,228.123 88.396 C 227.945 88.393,226.643 87.583,225.229 86.596 C 223.815 85.608,222.426 84.800,222.143 84.800 C 221.860 84.800,221.447 84.461,221.225 84.047 C 221.003 83.632,220.191 83.175,219.421 83.030 C 218.651 82.886,216.891 82.245,215.510 81.607 C 209.095 78.642,192.879 78.158,187.003 80.757 C 186.057 81.176,184.723 81.641,184.038 81.792 C 182.822 82.059,180.805 82.886,179.600 83.612 C 179.270 83.811,178.010 84.555,176.800 85.266 C 174.851 86.411,173.347 87.471,169.540 90.383 C 168.957 90.829,168.209 91.298,167.877 91.426 C 167.545 91.553,167.052 92.192,166.781 92.845 C 166.511 93.498,165.982 94.250,165.607 94.516 C 163.835 95.772,158.400 103.904,158.400 105.299 C 158.400 105.592,158.027 106.544,157.570 107.415 C 156.034 110.349,154.726 114.973,154.256 119.136 C 153.698 124.076,153.581 124.204,149.286 124.576 C 147.589 124.722,145.030 125.086,143.600 125.384 C 137.934 126.564,136.063 126.879,132.698 127.220 C 130.772 127.415,128.848 127.760,128.424 127.987 C 127.087 128.703,126.053 128.463,125.459 127.300 C 124.407 125.238,125.902 109.877,127.669 104.600 C 127.889 103.940,128.223 102.860,128.410 102.200 C 129.145 99.607,130.781 95.482,131.322 94.858 C 131.636 94.496,132.021 93.661,132.178 93.002 C 132.336 92.343,132.611 91.623,132.791 91.402 C 132.970 91.181,133.958 89.380,134.987 87.400 C 136.015 85.420,137.468 83.168,138.216 82.396 C 138.963 81.624,139.765 80.445,139.999 79.776 C 140.232 79.106,140.958 78.243,141.611 77.857 C 142.265 77.471,142.800 76.885,142.800 76.555 C 142.800 75.419,153.677 65.200,154.887 65.200 C 155.269 65.200,155.872 64.757,156.227 64.216 C 156.581 63.674,157.260 63.110,157.736 62.962 C 158.211 62.814,159.312 62.132,160.182 61.447 C 163.824 58.576,176.366 53.188,182.000 52.073 C 183.210 51.834,185.460 51.370,187.000 51.042 C 190.563 50.285,212.718 50.339,214.510 51.110 M189.600 133.851 C 177.086 134.392,169.127 134.913,166.121 135.388 C 164.185 135.695,160.530 136.062,158.000 136.206 C 153.223 136.477,150.682 136.808,145.600 137.823 C 143.950 138.152,141.070 138.683,139.200 139.003 C 137.330 139.322,134.450 139.871,132.800 140.221 C 131.150 140.572,128.797 141.002,127.571 141.178 C 126.345 141.353,124.949 141.706,124.469 141.963 C 123.988 142.220,122.382 142.532,120.898 142.655 C 119.313 142.787,117.787 143.167,117.200 143.576 C 116.596 143.995,115.063 144.365,113.330 144.510 C 111.752 144.641,109.952 145.005,109.330 145.318 C 108.709 145.631,106.400 146.299,104.200 146.802 C 102.000 147.305,98.760 148.246,97.000 148.894 C 95.240 149.541,92.693 150.417,91.340 150.839 C 89.986 151.262,88.479 151.931,87.991 152.327 L 87.103 153.046 87.153 169.623 C 87.214 189.549,87.485 197.866,88.221 202.400 C 88.525 204.270,88.885 207.510,89.022 209.600 C 89.159 211.690,89.616 214.436,90.036 215.702 C 90.456 216.967,90.800 218.582,90.800 219.289 C 90.800 220.649,91.912 225.666,93.174 230.000 C 94.136 233.304,94.635 235.158,95.429 238.382 C 95.778 239.803,96.305 241.429,96.598 241.996 C 96.891 242.563,97.257 243.698,97.411 244.518 C 97.565 245.338,98.030 246.675,98.445 247.489 C 98.860 248.303,99.200 249.280,99.200 249.661 C 99.200 250.041,99.365 250.455,99.566 250.579 C 99.767 250.703,100.422 252.109,101.021 253.703 C 101.619 255.296,102.445 256.972,102.855 257.426 C 103.265 257.880,103.600 258.632,103.600 259.097 C 103.600 259.562,103.877 260.220,104.215 260.558 C 104.553 260.896,105.062 261.944,105.346 262.886 C 105.630 263.829,106.379 265.410,107.010 266.400 C 107.642 267.390,108.604 269.100,109.149 270.200 C 109.694 271.300,110.558 272.709,111.070 273.331 C 111.581 273.953,112.000 274.645,112.000 274.869 C 112.000 275.328,115.874 281.318,118.602 285.077 C 119.591 286.440,120.400 287.678,120.400 287.829 C 120.400 287.980,120.985 288.783,121.700 289.613 C 122.415 290.444,123.810 292.154,124.800 293.412 C 125.790 294.671,127.255 296.372,128.055 297.192 C 128.855 298.011,130.081 299.473,130.780 300.441 C 134.026 304.934,150.842 321.036,154.611 323.259 C 155.336 323.687,156.032 324.307,156.159 324.637 C 156.286 324.968,156.932 325.427,157.595 325.658 C 158.258 325.889,158.800 326.299,158.800 326.569 C 158.800 327.238,160.301 328.499,162.011 329.268 C 162.788 329.617,164.033 330.419,164.779 331.051 C 166.182 332.240,167.851 333.326,170.592 334.834 C 171.467 335.316,172.826 336.226,173.611 336.857 C 175.022 337.991,177.282 339.320,180.000 340.613 C 180.770 340.980,181.730 341.574,182.134 341.933 C 183.379 343.040,193.087 348.000,194.010 348.000 C 194.242 348.000,194.969 348.396,195.624 348.881 C 197.550 350.305,202.462 350.189,204.769 348.666 C 205.714 348.042,207.412 347.256,208.544 346.920 C 209.675 346.585,211.503 345.710,212.607 344.978 C 213.711 344.245,216.089 342.897,217.893 341.982 C 219.696 341.067,221.273 339.999,221.397 339.608 C 221.540 339.159,222.186 338.809,223.159 338.653 C 224.005 338.518,224.932 338.122,225.221 337.774 C 225.510 337.426,226.442 336.787,227.291 336.353 C 229.670 335.140,234.800 331.605,234.800 331.179 C 234.800 330.971,235.041 330.800,235.336 330.800 C 235.907 330.800,237.729 329.531,240.648 327.100 C 241.638 326.275,242.599 325.600,242.783 325.600 C 243.131 325.600,244.583 324.437,247.367 321.929 C 248.265 321.120,250.260 319.343,251.800 317.981 C 254.289 315.779,260.634 309.902,262.492 308.079 C 266.484 304.162,279.148 289.187,279.559 287.898 C 279.646 287.624,280.186 286.822,280.759 286.115 C 282.776 283.625,283.496 282.584,284.315 280.973 C 284.769 280.079,285.425 279.111,285.771 278.824 C 286.117 278.537,286.400 278.076,286.400 277.800 C 286.400 277.524,286.680 277.065,287.023 276.781 C 287.366 276.496,287.912 275.709,288.237 275.032 C 288.562 274.354,289.265 273.080,289.800 272.200 C 290.334 271.320,291.297 269.496,291.940 268.146 C 292.582 266.796,293.477 265.323,293.928 264.872 C 294.379 264.421,294.931 263.389,295.155 262.579 C 295.379 261.768,295.852 260.785,296.206 260.393 C 296.561 260.001,297.098 258.744,297.400 257.600 C 297.702 256.456,298.220 255.220,298.551 254.854 C 298.883 254.488,299.329 253.409,299.543 252.456 C 299.757 251.503,300.278 250.336,300.701 249.862 C 301.563 248.896,302.222 247.287,302.611 245.200 C 302.754 244.430,303.295 242.450,303.813 240.800 C 305.851 234.304,308.281 225.794,308.781 223.400 C 310.258 216.330,310.745 213.213,310.972 209.374 C 311.116 206.940,311.533 204.060,311.898 202.974 C 313.056 199.534,313.172 153.572,312.025 152.425 C 311.571 151.971,310.825 151.600,310.367 151.600 C 309.908 151.600,308.243 151.083,306.666 150.452 C 305.089 149.821,302.989 149.168,302.000 149.002 C 301.010 148.836,299.845 148.452,299.411 148.150 C 298.977 147.847,298.195 147.600,297.673 147.600 C 297.151 147.600,294.896 146.982,292.662 146.227 C 290.428 145.472,287.520 144.729,286.200 144.576 C 284.880 144.423,283.322 144.055,282.738 143.759 C 282.155 143.462,280.355 143.016,278.738 142.768 C 277.122 142.520,275.193 142.065,274.451 141.758 C 273.709 141.451,272.534 141.200,271.838 141.200 C 271.143 141.200,269.590 140.925,268.387 140.590 C 267.184 140.254,264.857 139.794,263.215 139.568 C 261.573 139.342,260.043 139.013,259.815 138.839 C 259.587 138.664,257.240 138.297,254.600 138.024 C 251.960 137.750,248.900 137.284,247.800 136.989 C 246.700 136.694,243.347 136.266,240.348 136.039 C 237.349 135.812,234.469 135.445,233.948 135.223 C 232.317 134.528,198.282 133.475,189.600 133.851 M225.200 135.207 C 229.050 135.426,233.100 135.772,234.200 135.976 C 235.300 136.181,238.466 136.544,241.235 136.784 C 244.004 137.024,246.794 137.384,247.435 137.584 C 248.076 137.784,250.220 138.165,252.200 138.432 C 254.180 138.698,256.700 139.056,257.800 139.226 C 258.900 139.397,260.970 139.712,262.400 139.928 C 263.830 140.143,265.493 140.512,266.096 140.748 C 266.698 140.984,268.408 141.300,269.896 141.450 C 271.383 141.600,272.960 141.944,273.400 142.214 C 273.840 142.485,275.280 142.820,276.600 142.961 C 277.920 143.101,280.080 143.566,281.400 143.994 C 282.720 144.422,285.240 145.078,287.000 145.451 C 288.760 145.824,291.412 146.551,292.892 147.065 C 294.373 147.579,296.083 148.006,296.692 148.014 C 297.302 148.021,298.520 148.375,299.400 148.800 C 300.280 149.225,301.291 149.579,301.646 149.586 C 302.001 149.594,303.981 150.229,306.046 150.998 C 308.111 151.767,310.199 152.397,310.686 152.398 C 312.442 152.402,312.473 152.876,312.285 176.333 C 312.139 194.442,311.992 199.086,311.494 201.200 C 311.158 202.630,310.764 205.600,310.619 207.800 C 310.354 211.818,309.633 216.536,308.602 221.000 C 308.297 222.320,307.832 224.390,307.570 225.600 C 307.307 226.810,306.857 228.267,306.568 228.837 C 306.280 229.408,305.921 230.800,305.771 231.930 C 305.621 233.061,305.252 234.191,304.949 234.442 C 304.647 234.693,304.400 235.409,304.400 236.034 C 304.400 236.659,304.046 238.122,303.613 239.285 C 303.181 240.448,302.547 242.612,302.206 244.093 C 301.865 245.573,301.144 247.437,300.604 248.233 C 300.063 249.029,299.503 250.312,299.358 251.085 C 299.213 251.857,298.488 253.652,297.747 255.074 C 297.006 256.495,296.400 257.981,296.400 258.375 C 296.400 258.769,296.065 259.521,295.655 260.046 C 295.245 260.571,294.769 261.450,294.597 262.000 C 294.426 262.550,293.881 263.540,293.387 264.200 C 292.894 264.860,291.648 267.110,290.619 269.200 C 289.591 271.290,287.313 275.160,285.559 277.800 C 283.804 280.440,282.061 283.132,281.684 283.783 C 281.308 284.434,280.505 285.483,279.900 286.114 C 279.295 286.745,278.800 287.397,278.800 287.562 C 278.800 287.727,277.812 289.108,276.604 290.631 C 275.397 292.154,273.977 294.030,273.450 294.800 C 272.922 295.570,271.525 297.211,270.345 298.447 C 269.165 299.682,266.763 302.342,265.006 304.358 C 263.249 306.373,261.115 308.505,260.264 309.094 C 259.412 309.684,257.741 311.244,256.549 312.561 C 255.358 313.878,253.922 315.258,253.358 315.628 C 252.794 315.998,250.912 317.673,249.175 319.350 C 247.439 321.028,245.907 322.400,245.770 322.400 C 245.634 322.400,244.705 323.120,243.705 324.000 C 242.705 324.880,241.674 325.600,241.413 325.600 C 241.153 325.600,240.516 326.050,239.999 326.601 C 239.482 327.152,237.920 328.356,236.529 329.277 C 235.138 330.198,234.000 331.102,234.000 331.286 C 234.000 331.470,233.524 331.801,232.942 332.022 C 232.361 332.243,231.236 332.930,230.442 333.548 C 229.649 334.166,228.034 335.190,226.853 335.825 C 225.673 336.459,224.620 337.203,224.515 337.478 C 224.409 337.753,223.706 338.094,222.952 338.235 C 222.197 338.377,221.360 338.792,221.090 339.157 C 220.821 339.522,219.430 340.393,218.000 341.091 C 216.570 341.790,214.297 343.081,212.949 343.960 C 211.601 344.839,209.359 345.942,207.965 346.412 C 206.572 346.881,204.929 347.623,204.314 348.061 C 201.725 349.905,197.029 349.747,195.156 347.753 C 194.663 347.229,193.954 346.800,193.580 346.800 C 192.534 346.800,183.416 342.259,182.035 341.051 C 181.686 340.745,180.976 340.365,180.459 340.207 C 179.444 339.897,177.862 338.921,174.400 336.468 C 173.190 335.611,171.541 334.602,170.736 334.226 C 169.931 333.851,168.958 333.196,168.574 332.772 C 168.190 332.347,167.703 332.000,167.491 332.000 C 167.279 332.000,166.490 331.460,165.738 330.799 C 164.986 330.139,163.484 329.149,162.400 328.600 C 161.316 328.051,160.236 327.241,160.001 326.802 C 159.766 326.362,158.859 325.638,157.987 325.193 C 157.114 324.748,156.400 324.219,156.400 324.018 C 156.400 323.817,155.694 323.146,154.832 322.526 C 148.954 318.305,135.681 305.429,129.800 298.245 C 128.040 296.094,125.654 293.225,124.497 291.867 C 123.340 290.510,121.540 288.140,120.497 286.600 C 119.454 285.060,118.195 283.404,117.700 282.919 C 117.205 282.435,116.800 281.817,116.800 281.547 C 116.800 281.277,115.900 279.754,114.800 278.162 C 113.700 276.571,112.800 275.087,112.800 274.865 C 112.800 274.643,112.385 273.953,111.877 273.331 C 111.370 272.709,110.427 271.120,109.783 269.800 C 109.139 268.480,108.034 266.478,107.327 265.351 C 106.620 264.224,105.916 262.784,105.764 262.151 C 105.612 261.518,105.153 260.678,104.744 260.284 C 104.335 259.891,104.000 259.203,104.000 258.756 C 104.000 258.308,103.540 257.158,102.979 256.200 C 101.232 253.220,95.614 237.784,95.587 235.891 C 95.580 235.401,95.310 234.651,94.987 234.224 C 94.664 233.796,94.400 232.948,94.400 232.338 C 94.400 231.729,94.048 230.337,93.618 229.245 C 93.188 228.154,92.714 226.302,92.566 225.130 C 92.418 223.959,92.050 222.393,91.748 221.651 C 91.447 220.909,91.200 219.728,91.200 219.026 C 91.200 218.325,90.855 216.412,90.433 214.775 C 90.011 213.139,89.547 210.000,89.402 207.800 C 89.256 205.600,88.890 201.820,88.588 199.400 C 88.020 194.856,87.656 154.870,88.171 153.591 C 88.434 152.937,91.314 151.486,93.600 150.857 C 94.370 150.645,96.080 150.036,97.400 149.505 C 98.720 148.974,101.240 148.220,103.000 147.829 C 104.760 147.439,107.779 146.598,109.709 145.960 C 111.639 145.322,113.965 144.800,114.878 144.800 C 115.790 144.800,116.821 144.544,117.169 144.231 C 117.516 143.918,119.322 143.455,121.183 143.201 C 123.044 142.947,124.895 142.563,125.296 142.348 C 125.698 142.134,128.045 141.607,130.513 141.179 C 132.981 140.751,135.810 140.228,136.800 140.018 C 137.790 139.807,139.415 139.627,140.411 139.617 C 141.407 139.608,142.577 139.356,143.011 139.057 C 143.445 138.759,145.240 138.389,147.000 138.234 C 148.760 138.080,150.933 137.790,151.830 137.591 C 152.726 137.391,156.866 136.949,161.030 136.608 C 165.193 136.267,168.960 135.808,169.400 135.588 C 171.515 134.531,208.807 134.276,225.200 135.207 M194.400 172.834 C 193.630 173.061,192.010 173.528,190.800 173.872 C 189.590 174.216,187.602 175.196,186.383 176.049 C 185.163 176.902,183.922 177.600,183.625 177.600 C 183.097 177.600,182.546 178.046,180.296 180.296 C 178.059 182.533,177.600 183.095,177.600 183.599 C 177.600 183.882,176.908 185.213,176.062 186.557 C 172.735 191.842,170.986 205.733,173.323 208.315 C 173.695 208.727,174.000 209.319,174.001 209.631 C 174.004 211.909,181.935 222.397,183.658 222.401 C 184.863 222.405,186.800 223.985,186.800 224.965 C 186.800 226.050,185.132 227.600,183.964 227.600 C 183.563 227.600,182.553 228.044,181.718 228.587 C 178.547 230.647,175.600 232.881,175.600 233.224 C 175.600 233.419,175.061 233.858,174.401 234.199 C 173.739 234.542,172.948 235.429,172.633 236.183 C 172.317 236.939,171.527 237.824,170.860 238.169 C 170.198 238.511,169.529 239.194,169.373 239.686 C 169.216 240.179,168.484 241.461,167.744 242.536 C 167.005 243.610,166.400 244.675,166.400 244.901 C 166.400 245.127,166.065 246.052,165.655 246.956 C 163.639 251.404,162.000 263.155,163.196 264.595 C 163.827 265.356,236.548 265.532,237.017 264.773 C 237.594 263.839,237.179 256.525,236.393 253.775 C 235.957 252.250,235.600 250.559,235.600 250.016 C 235.600 248.362,231.564 240.876,229.300 238.331 C 228.145 237.032,227.200 235.745,227.200 235.471 C 227.200 235.197,226.705 234.679,226.100 234.321 C 225.495 233.963,223.920 232.667,222.600 231.441 C 221.280 230.215,219.969 229.209,219.688 229.206 C 219.174 229.200,213.697 226.229,213.060 225.610 C 212.336 224.907,213.273 223.681,215.054 223.001 C 218.572 221.657,226.000 212.653,226.000 209.731 C 226.000 209.364,226.290 208.742,226.645 208.351 C 227.154 207.787,227.332 206.397,227.492 201.719 C 227.746 194.270,226.649 189.605,223.738 185.762 C 223.222 185.081,222.800 184.346,222.800 184.128 C 222.800 183.540,219.959 180.000,219.488 180.000 C 219.265 180.000,218.344 179.398,217.441 178.663 C 215.060 176.723,210.623 174.000,209.843 174.000 C 209.474 174.000,208.753 173.726,208.242 173.391 C 207.078 172.628,196.538 172.204,194.400 172.834 M208.800 174.225 C 209.790 174.621,210.884 175.182,211.231 175.472 C 211.579 175.762,211.988 176.000,212.140 176.000 C 212.613 176.000,215.690 178.135,217.180 179.498 C 217.961 180.212,218.911 180.797,219.291 180.798 C 220.162 180.800,221.634 183.088,224.569 189.000 C 227.794 195.498,228.041 205.131,225.113 210.200 C 224.858 210.640,224.139 211.990,223.514 213.200 C 221.399 217.297,216.771 222.079,214.422 222.595 C 211.299 223.281,211.251 225.719,214.329 227.272 C 215.499 227.862,216.852 228.604,217.334 228.920 C 217.817 229.236,218.786 229.621,219.488 229.775 C 220.218 229.936,220.866 230.377,221.003 230.808 C 221.134 231.222,221.862 231.944,222.621 232.413 C 223.379 232.882,224.000 233.409,224.000 233.584 C 224.000 233.759,224.540 234.127,225.200 234.400 C 225.860 234.673,226.400 235.156,226.400 235.472 C 226.400 235.789,227.273 236.982,228.340 238.124 C 229.407 239.266,230.866 241.280,231.581 242.600 C 232.296 243.920,233.001 245.090,233.148 245.200 C 234.333 246.088,236.907 257.880,236.726 261.595 L 236.600 264.189 235.000 264.472 C 230.509 265.264,164.825 264.825,163.997 263.997 C 162.053 262.053,165.757 245.159,168.654 242.755 C 168.932 242.524,169.350 241.765,169.583 241.068 C 169.817 240.371,170.594 239.421,171.310 238.958 C 172.026 238.495,172.969 237.415,173.406 236.558 C 173.843 235.701,174.358 234.933,174.550 234.850 C 174.743 234.768,175.194 234.407,175.553 234.050 C 178.085 231.528,183.515 228.000,184.863 228.000 C 185.586 228.000,188.000 225.801,188.000 225.143 C 188.000 224.114,187.040 223.237,184.823 222.242 C 183.493 221.646,182.089 220.697,181.703 220.134 C 181.316 219.571,180.345 218.366,179.545 217.455 C 178.745 216.545,177.136 214.000,175.970 211.800 C 174.803 209.600,173.695 207.695,173.507 207.566 C 173.319 207.437,173.162 204.647,173.158 201.366 C 173.149 194.329,173.727 191.939,176.580 187.200 C 177.574 185.550,178.390 183.989,178.393 183.732 C 178.403 183.040,183.070 178.495,184.107 178.166 C 184.598 178.011,186.190 177.100,187.645 176.142 C 189.470 174.940,190.897 174.321,192.245 174.146 C 193.320 174.006,194.470 173.730,194.800 173.532 C 195.888 172.879,206.781 173.418,208.800 174.225 " stroke="none" fill="#5b9ecf" fill-rule="evenodd"></path><path id="path3" d="M187.000 51.042 C 185.460 51.370,183.210 51.834,182.000 52.073 C 176.366 53.188,163.824 58.576,160.182 61.447 C 159.312 62.132,158.211 62.814,157.736 62.962 C 157.260 63.110,156.581 63.674,156.227 64.216 C 155.872 64.757,155.269 65.200,154.887 65.200 C 153.677 65.200,142.800 75.419,142.800 76.555 C 142.800 76.885,142.265 77.471,141.611 77.857 C 140.958 78.243,140.232 79.106,139.999 79.776 C 139.765 80.445,138.963 81.624,138.216 82.396 C 137.468 83.168,136.015 85.420,134.987 87.400 C 133.958 89.380,132.970 91.181,132.791 91.402 C 132.611 91.623,132.336 92.343,132.178 93.002 C 132.021 93.661,131.636 94.496,131.322 94.858 C 130.781 95.482,129.145 99.607,128.410 102.200 C 128.223 102.860,127.889 103.940,127.669 104.600 C 125.902 109.877,124.407 125.238,125.459 127.300 C 126.053 128.463,127.087 128.703,128.424 127.987 C 128.848 127.760,130.772 127.415,132.698 127.220 C 136.063 126.879,137.934 126.564,143.600 125.384 C 145.030 125.086,147.589 124.722,149.286 124.576 C 153.581 124.204,153.698 124.076,154.256 119.136 C 154.726 114.973,156.034 110.349,157.570 107.415 C 158.027 106.544,158.400 105.592,158.400 105.299 C 158.400 103.904,163.835 95.772,165.607 94.516 C 165.982 94.250,166.511 93.498,166.781 92.845 C 167.052 92.192,167.545 91.553,167.877 91.426 C 168.209 91.298,168.957 90.829,169.540 90.383 C 173.347 87.471,174.851 86.411,176.800 85.266 C 178.010 84.555,179.270 83.811,179.600 83.612 C 180.805 82.886,182.822 82.059,184.038 81.792 C 184.723 81.641,186.057 81.176,187.003 80.757 C 192.879 78.158,209.095 78.642,215.510 81.607 C 216.891 82.245,218.651 82.886,219.421 83.030 C 220.191 83.175,221.003 83.632,221.225 84.047 C 221.447 84.461,221.860 84.800,222.143 84.800 C 222.426 84.800,223.815 85.608,225.229 86.596 C 226.643 87.583,227.945 88.393,228.123 88.396 C 228.742 88.404,234.877 94.617,236.422 96.800 C 237.278 98.010,238.523 99.771,239.189 100.714 C 239.855 101.657,240.400 102.574,240.400 102.752 C 240.400 102.930,240.742 103.386,241.160 103.764 C 241.579 104.143,242.044 105.116,242.194 105.926 C 242.344 106.737,242.995 108.608,243.641 110.084 C 244.355 111.717,244.976 114.067,245.226 116.084 C 245.966 122.059,246.382 123.616,247.334 123.976 C 248.436 124.393,256.221 125.606,257.772 125.603 C 258.416 125.601,259.496 125.777,260.172 125.994 C 260.847 126.210,264.010 126.906,267.200 127.539 C 270.390 128.172,273.303 128.819,273.672 128.977 C 275.047 129.564,275.414 116.003,274.111 112.800 C 273.887 112.250,273.480 110.180,273.206 108.200 C 272.932 106.220,272.488 104.330,272.219 104.000 C 271.950 103.670,271.511 102.380,271.244 101.133 C 270.976 99.885,270.137 97.606,269.379 96.067 C 268.620 94.528,268.000 92.915,268.000 92.483 C 268.000 92.051,267.735 91.478,267.411 91.209 C 267.087 90.940,266.362 89.793,265.799 88.660 C 264.277 85.597,262.747 83.096,261.400 81.470 C 260.740 80.673,259.570 79.196,258.800 78.188 C 257.635 76.664,252.462 71.337,247.461 66.514 C 246.835 65.910,245.769 65.182,245.092 64.898 C 244.415 64.613,243.611 64.022,243.304 63.585 C 242.998 63.147,242.017 62.417,241.124 61.961 C 240.231 61.506,238.776 60.608,237.890 59.967 C 237.005 59.325,236.061 58.800,235.794 58.800 C 235.527 58.800,234.850 58.440,234.291 58.000 C 233.731 57.560,232.984 57.200,232.631 57.200 C 232.277 57.200,231.046 56.671,229.894 56.024 C 228.742 55.378,226.476 54.484,224.858 54.038 C 223.239 53.592,221.702 53.051,221.442 52.835 C 221.182 52.619,219.766 52.250,218.295 52.015 C 216.824 51.780,215.121 51.373,214.510 51.110 C 212.718 50.339,190.563 50.285,187.000 51.042 M210.714 51.583 C 212.899 52.014,215.881 52.488,217.340 52.638 C 218.799 52.787,220.198 53.157,220.449 53.459 C 220.700 53.762,222.187 54.392,223.753 54.861 C 225.319 55.330,227.888 56.318,229.462 57.056 C 231.035 57.795,232.583 58.400,232.900 58.400 C 233.217 58.400,233.798 58.755,234.191 59.190 C 234.584 59.624,235.242 60.086,235.652 60.217 C 236.426 60.462,239.849 62.598,241.600 63.928 C 242.150 64.346,243.366 65.077,244.302 65.553 C 246.217 66.527,259.600 79.784,259.600 80.708 C 259.600 80.914,261.989 84.654,264.041 87.660 C 264.439 88.243,264.879 89.175,265.018 89.730 C 265.158 90.286,265.616 91.052,266.036 91.433 C 266.456 91.813,266.800 92.461,266.800 92.873 C 266.800 93.285,267.429 94.895,268.198 96.451 C 268.967 98.006,269.851 100.206,270.164 101.340 C 270.476 102.473,271.108 104.388,271.567 105.596 C 272.026 106.804,272.589 109.324,272.817 111.196 C 273.046 113.068,273.408 115.230,273.622 116.000 C 274.343 118.593,274.586 125.894,273.975 126.630 C 273.272 127.477,269.543 127.167,263.706 125.776 C 261.454 125.239,259.096 124.800,258.466 124.800 C 257.837 124.800,255.629 124.443,253.561 124.006 C 251.492 123.570,249.318 123.210,248.728 123.206 C 247.437 123.199,246.758 121.223,246.043 115.400 C 245.747 112.989,245.102 110.545,244.090 108.000 C 242.503 104.007,242.398 103.815,238.857 98.400 C 236.825 95.292,229.342 87.200,228.500 87.200 C 228.305 87.200,227.179 86.480,226.000 85.600 C 224.821 84.720,223.587 84.000,223.259 84.000 C 222.931 84.000,222.373 83.738,222.019 83.417 C 221.039 82.530,214.037 79.731,212.000 79.411 C 211.010 79.256,209.223 78.853,208.028 78.515 C 205.023 77.666,193.952 78.035,189.400 79.136 C 186.233 79.902,185.481 80.141,181.200 81.745 C 177.593 83.096,172.200 86.606,169.409 89.418 C 168.744 90.088,167.705 90.849,167.100 91.110 C 166.495 91.370,166.000 91.771,166.000 92.000 C 166.000 92.230,165.306 93.179,164.458 94.109 C 161.206 97.676,157.749 103.132,157.388 105.269 C 157.250 106.086,156.896 106.955,156.600 107.200 C 156.304 107.445,155.937 108.401,155.784 109.323 C 155.631 110.245,155.243 111.512,154.923 112.139 C 154.360 113.238,154.025 114.736,153.221 119.764 C 152.725 122.864,152.371 123.146,148.588 123.458 C 146.835 123.603,144.702 123.964,143.850 124.260 C 142.997 124.557,141.681 124.800,140.925 124.800 C 140.169 124.800,137.897 125.147,135.875 125.570 C 125.794 127.682,126.058 127.756,126.034 122.820 C 126.009 117.786,127.548 108.560,129.374 102.800 C 129.896 101.150,130.433 99.310,130.567 98.710 C 130.701 98.111,131.247 96.977,131.780 96.191 C 132.314 95.404,132.965 94.095,133.226 93.280 C 133.487 92.466,133.923 91.530,134.194 91.200 C 134.465 90.870,135.284 89.430,136.015 88.000 C 136.745 86.570,138.038 84.550,138.886 83.511 C 139.735 82.472,140.655 81.085,140.931 80.430 C 141.486 79.109,141.388 79.218,147.702 72.900 C 154.191 66.409,155.058 65.600,155.530 65.600 C 155.764 65.600,156.190 65.269,156.477 64.865 C 156.765 64.460,157.529 63.998,158.176 63.838 C 158.823 63.678,159.993 63.042,160.776 62.426 C 165.327 58.845,179.398 53.065,185.200 52.394 C 186.850 52.203,188.920 51.860,189.800 51.633 C 194.081 50.525,205.213 50.499,210.714 51.583 M181.000 134.826 C 175.060 135.025,169.840 135.368,169.400 135.588 C 168.960 135.808,165.193 136.267,161.030 136.608 C 156.866 136.949,152.726 137.391,151.830 137.591 C 150.933 137.790,148.760 138.080,147.000 138.234 C 145.240 138.389,143.445 138.759,143.011 139.057 C 142.577 139.356,141.407 139.608,140.411 139.617 C 139.415 139.627,137.790 139.807,136.800 140.018 C 135.810 140.228,132.981 140.751,130.513 141.179 C 128.045 141.607,125.698 142.134,125.296 142.348 C 124.895 142.563,123.044 142.947,121.183 143.201 C 119.322 143.455,117.516 143.918,117.169 144.231 C 116.821 144.544,115.790 144.800,114.878 144.800 C 113.965 144.800,111.639 145.322,109.709 145.960 C 107.779 146.598,104.760 147.439,103.000 147.829 C 101.240 148.220,98.720 148.974,97.400 149.505 C 96.080 150.036,94.370 150.645,93.600 150.857 C 91.314 151.486,88.434 152.937,88.171 153.591 C 87.656 154.870,88.020 194.856,88.588 199.400 C 88.890 201.820,89.256 205.600,89.402 207.800 C 89.547 210.000,90.011 213.139,90.433 214.775 C 90.855 216.412,91.200 218.325,91.200 219.026 C 91.200 219.728,91.447 220.909,91.748 221.651 C 92.050 222.393,92.418 223.959,92.566 225.130 C 92.714 226.302,93.188 228.154,93.618 229.245 C 94.048 230.337,94.400 231.729,94.400 232.338 C 94.400 232.948,94.664 233.796,94.987 234.224 C 95.310 234.651,95.580 235.401,95.587 235.891 C 95.614 237.784,101.232 253.220,102.979 256.200 C 103.540 257.158,104.000 258.308,104.000 258.756 C 104.000 259.203,104.335 259.891,104.744 260.284 C 105.153 260.678,105.612 261.518,105.764 262.151 C 105.916 262.784,106.620 264.224,107.327 265.351 C 108.034 266.478,109.139 268.480,109.783 269.800 C 110.427 271.120,111.370 272.709,111.877 273.331 C 112.385 273.953,112.800 274.643,112.800 274.865 C 112.800 275.087,113.700 276.571,114.800 278.162 C 115.900 279.754,116.800 281.277,116.800 281.547 C 116.800 281.817,117.205 282.435,117.700 282.919 C 118.195 283.404,119.454 285.060,120.497 286.600 C 121.540 288.140,123.340 290.510,124.497 291.867 C 125.654 293.225,128.040 296.094,129.800 298.245 C 135.681 305.429,148.954 318.305,154.832 322.526 C 155.694 323.146,156.400 323.817,156.400 324.018 C 156.400 324.219,157.114 324.748,157.987 325.193 C 158.859 325.638,159.766 326.362,160.001 326.802 C 160.236 327.241,161.316 328.051,162.400 328.600 C 163.484 329.149,164.986 330.139,165.738 330.799 C 166.490 331.460,167.279 332.000,167.491 332.000 C 167.703 332.000,168.190 332.347,168.574 332.772 C 168.958 333.196,169.931 333.851,170.736 334.226 C 171.541 334.602,173.190 335.611,174.400 336.468 C 177.862 338.921,179.444 339.897,180.459 340.207 C 180.976 340.365,181.686 340.745,182.035 341.051 C 183.416 342.259,192.534 346.800,193.580 346.800 C 193.954 346.800,194.663 347.229,195.156 347.753 C 197.029 349.747,201.725 349.905,204.314 348.061 C 204.929 347.623,206.572 346.881,207.965 346.412 C 209.359 345.942,211.601 344.839,212.949 343.960 C 214.297 343.081,216.570 341.790,218.000 341.091 C 219.430 340.393,220.821 339.522,221.090 339.157 C 221.360 338.792,222.197 338.377,222.952 338.235 C 223.706 338.094,224.409 337.753,224.515 337.478 C 224.620 337.203,225.673 336.459,226.853 335.825 C 228.034 335.190,229.649 334.166,230.442 333.548 C 231.236 332.930,232.361 332.243,232.942 332.022 C 233.524 331.801,234.000 331.470,234.000 331.286 C 234.000 331.102,235.138 330.198,236.529 329.277 C 237.920 328.356,239.482 327.152,239.999 326.601 C 240.516 326.050,241.153 325.600,241.413 325.600 C 241.674 325.600,242.705 324.880,243.705 324.000 C 244.705 323.120,245.634 322.400,245.770 322.400 C 245.907 322.400,247.439 321.028,249.175 319.350 C 250.912 317.673,252.794 315.998,253.358 315.628 C 253.922 315.258,255.358 313.878,256.549 312.561 C 257.741 311.244,259.412 309.684,260.264 309.094 C 261.115 308.505,263.249 306.373,265.006 304.358 C 266.763 302.342,269.165 299.682,270.345 298.447 C 271.525 297.211,272.922 295.570,273.450 294.800 C 273.977 294.030,275.397 292.154,276.604 290.631 C 277.812 289.108,278.800 287.727,278.800 287.562 C 278.800 287.397,279.295 286.745,279.900 286.114 C 280.505 285.483,281.308 284.434,281.684 283.783 C 282.061 283.132,283.804 280.440,285.559 277.800 C 287.313 275.160,289.591 271.290,290.619 269.200 C 291.648 267.110,292.894 264.860,293.387 264.200 C 293.881 263.540,294.426 262.550,294.597 262.000 C 294.769 261.450,295.245 260.571,295.655 260.046 C 296.065 259.521,296.400 258.769,296.400 258.375 C 296.400 257.981,297.006 256.495,297.747 255.074 C 298.488 253.652,299.213 251.857,299.358 251.085 C 299.503 250.312,300.063 249.029,300.604 248.233 C 301.144 247.437,301.865 245.573,302.206 244.093 C 302.547 242.612,303.181 240.448,303.613 239.285 C 304.046 238.122,304.400 236.659,304.400 236.034 C 304.400 235.409,304.647 234.693,304.949 234.442 C 305.252 234.191,305.621 233.061,305.771 231.930 C 305.921 230.800,306.280 229.408,306.568 228.837 C 306.857 228.267,307.307 226.810,307.570 225.600 C 307.832 224.390,308.297 222.320,308.602 221.000 C 309.633 216.536,310.354 211.818,310.619 207.800 C 310.764 205.600,311.158 202.630,311.494 201.200 C 311.992 199.086,312.139 194.442,312.285 176.333 C 312.473 152.876,312.442 152.402,310.686 152.398 C 310.199 152.397,308.111 151.767,306.046 150.998 C 303.981 150.229,302.001 149.594,301.646 149.586 C 301.291 149.579,300.280 149.225,299.400 148.800 C 298.520 148.375,297.302 148.021,296.692 148.014 C 296.083 148.006,294.373 147.579,292.892 147.065 C 291.412 146.551,288.760 145.824,287.000 145.451 C 285.240 145.078,282.720 144.422,281.400 143.994 C 280.080 143.566,277.920 143.101,276.600 142.961 C 275.280 142.820,273.840 142.485,273.400 142.214 C 272.960 141.944,271.383 141.600,269.896 141.450 C 268.408 141.300,266.698 140.984,266.096 140.748 C 265.493 140.512,263.830 140.143,262.400 139.928 C 260.970 139.712,258.900 139.397,257.800 139.226 C 256.700 139.056,254.180 138.698,252.200 138.432 C 250.220 138.165,248.076 137.784,247.435 137.584 C 246.794 137.384,244.004 137.024,241.235 136.784 C 238.466 136.544,235.300 136.181,234.200 135.976 C 228.274 134.876,198.605 134.234,181.000 134.826 M229.800 136.551 C 234.640 136.908,239.860 137.463,241.400 137.785 C 242.940 138.107,245.370 138.485,246.800 138.624 C 248.230 138.764,250.570 139.115,252.000 139.404 C 253.430 139.694,255.860 140.054,257.400 140.205 C 258.940 140.356,261.730 140.802,263.600 141.197 C 265.470 141.592,268.121 142.033,269.490 142.176 C 270.860 142.320,272.480 142.698,273.090 143.016 C 273.701 143.335,274.789 143.596,275.510 143.598 C 276.230 143.599,277.818 143.951,279.039 144.380 C 280.259 144.809,282.099 145.272,283.129 145.409 C 284.158 145.547,285.540 145.897,286.200 146.187 C 286.860 146.477,288.210 146.922,289.200 147.176 C 296.672 149.093,300.707 150.230,302.200 150.838 C 303.774 151.479,309.024 153.139,310.300 153.399 L 311.600 153.664 311.598 174.132 C 311.596 186.027,311.434 195.186,311.210 196.000 C 310.998 196.770,310.553 200.100,310.221 203.400 C 309.889 206.700,309.249 211.380,308.798 213.800 C 308.347 216.220,307.706 219.820,307.373 221.800 C 307.041 223.780,306.521 225.940,306.217 226.600 C 305.913 227.260,305.463 228.970,305.217 230.400 C 304.970 231.830,304.523 233.540,304.224 234.200 C 303.430 235.950,300.400 245.436,300.400 246.172 C 300.400 246.518,300.242 246.800,300.049 246.800 C 299.635 246.800,298.957 248.480,298.653 250.254 C 298.535 250.944,297.980 252.183,297.420 253.009 C 296.860 253.834,296.208 255.229,295.971 256.107 C 295.585 257.543,294.407 259.924,290.681 266.800 C 290.025 268.010,289.083 269.758,288.586 270.685 C 286.625 274.348,281.792 281.834,281.122 282.248 C 280.899 282.386,280.420 283.154,280.058 283.954 C 279.696 284.755,279.072 285.768,278.670 286.205 C 277.102 287.914,272.841 293.642,272.620 294.337 C 272.492 294.741,271.960 295.301,271.437 295.580 C 270.915 295.859,270.243 296.559,269.944 297.134 C 269.645 297.709,268.680 298.911,267.800 299.806 C 266.920 300.700,263.913 303.764,261.118 306.616 C 258.323 309.467,255.353 312.431,254.518 313.202 C 248.965 318.333,245.629 321.200,245.215 321.200 C 244.950 321.200,243.984 321.909,243.067 322.776 C 241.401 324.350,233.744 330.138,230.904 331.970 C 230.077 332.503,228.112 333.723,226.539 334.680 C 224.965 335.637,223.582 336.669,223.466 336.973 C 223.349 337.276,222.690 337.649,222.000 337.800 C 221.310 337.951,220.649 338.328,220.530 338.638 C 220.412 338.947,220.016 339.200,219.651 339.200 C 219.286 339.200,217.809 339.888,216.370 340.730 C 214.930 341.571,212.564 342.838,211.112 343.545 C 209.660 344.253,208.272 345.072,208.028 345.366 C 207.784 345.660,206.892 346.011,206.044 346.147 C 205.197 346.282,204.280 346.663,204.005 346.994 C 202.647 348.630,197.148 348.405,195.384 346.641 C 195.031 346.289,194.565 346.000,194.347 346.000 C 193.778 346.000,189.784 344.077,187.133 342.526 C 185.886 341.797,184.605 341.200,184.287 341.200 C 183.968 341.200,183.279 340.864,182.754 340.453 C 182.229 340.043,180.810 339.204,179.600 338.589 C 178.390 337.974,176.860 336.977,176.200 336.373 C 175.540 335.769,173.830 334.674,172.400 333.940 C 170.970 333.206,169.620 332.394,169.400 332.134 C 168.829 331.462,165.433 328.939,163.021 327.396 C 161.890 326.673,160.726 325.793,160.434 325.441 C 160.141 325.088,159.699 324.798,159.451 324.795 C 159.203 324.792,158.238 324.117,157.307 323.295 C 156.375 322.473,154.313 320.720,152.724 319.400 C 151.135 318.080,148.643 315.875,147.185 314.500 C 145.728 313.125,144.350 312.000,144.122 312.000 C 143.895 312.000,143.210 311.280,142.600 310.400 C 141.990 309.520,141.352 308.800,141.182 308.800 C 140.700 308.800,134.431 302.368,133.343 300.757 C 132.808 299.964,131.926 299.113,131.385 298.866 C 130.843 298.619,130.400 298.154,130.400 297.833 C 130.400 297.289,129.239 295.766,125.781 291.774 C 125.006 290.879,123.759 289.238,123.010 288.126 C 122.262 287.014,121.368 285.997,121.025 285.865 C 120.681 285.733,120.400 285.268,120.400 284.832 C 120.400 284.395,119.770 283.427,119.000 282.679 C 118.230 281.931,117.600 281.146,117.600 280.934 C 117.600 280.721,116.403 278.670,114.941 276.374 C 112.369 272.337,110.772 269.502,107.527 263.212 C 106.679 261.568,105.726 260.078,105.409 259.901 C 105.092 259.723,104.712 258.908,104.564 258.089 C 104.417 257.270,103.695 255.302,102.960 253.716 C 102.225 252.130,101.503 250.330,101.356 249.716 C 101.208 249.102,100.802 248.060,100.453 247.400 C 100.104 246.740,99.603 245.390,99.340 244.400 C 99.077 243.410,98.308 241.102,97.631 239.271 C 96.954 237.440,96.400 235.617,96.400 235.220 C 96.400 234.823,96.146 234.287,95.835 234.029 C 95.524 233.771,95.144 232.624,94.991 231.480 C 94.838 230.336,94.389 228.410,93.994 227.200 C 93.598 225.990,93.168 224.118,93.037 223.040 C 92.906 221.963,92.612 220.856,92.384 220.580 C 92.155 220.305,91.785 218.397,91.560 216.340 C 91.335 214.283,90.904 211.610,90.603 210.400 C 90.301 209.190,89.929 205.500,89.776 202.200 C 89.601 198.427,89.294 195.799,88.949 195.120 C 88.506 194.249,88.400 190.298,88.400 174.695 L 88.400 155.350 89.500 154.327 C 91.097 152.841,92.407 152.123,94.045 151.837 C 94.841 151.698,97.710 150.778,100.422 149.792 C 103.134 148.806,105.813 147.999,106.376 147.997 C 106.939 147.996,108.730 147.543,110.356 146.991 C 111.982 146.440,114.952 145.618,116.956 145.166 C 123.961 143.584,127.011 142.865,128.400 142.468 C 129.170 142.248,131.051 141.944,132.580 141.793 C 134.110 141.643,135.820 141.338,136.380 141.116 C 136.941 140.894,138.570 140.566,140.000 140.387 C 141.430 140.207,143.950 139.866,145.600 139.629 C 147.250 139.391,150.400 138.938,152.600 138.621 C 154.800 138.305,157.680 137.872,159.000 137.659 C 160.320 137.447,164.190 137.069,167.600 136.819 C 171.010 136.570,175.600 136.216,177.800 136.034 C 184.590 135.472,219.927 135.823,229.800 136.551 M193.444 171.993 C 190.943 172.449,187.955 173.720,185.332 175.442 C 184.195 176.189,183.140 176.800,182.987 176.800 C 182.405 176.800,176.885 182.665,176.211 184.000 C 175.822 184.770,175.275 185.670,174.995 186.000 C 174.716 186.330,173.889 188.040,173.158 189.800 L 171.829 193.000 171.835 200.000 C 171.842 207.409,172.520 210.664,174.733 213.909 C 175.143 214.509,176.000 215.778,176.639 216.728 C 179.021 220.274,179.430 220.740,180.700 221.356 C 181.415 221.703,182.000 222.152,182.000 222.354 C 182.000 222.556,182.630 223.093,183.400 223.547 C 184.170 224.001,184.800 224.619,184.800 224.919 C 184.800 225.424,181.274 228.000,180.583 228.000 C 179.908 228.000,175.130 231.805,172.250 234.635 C 170.083 236.765,165.600 243.168,165.600 244.133 C 165.600 244.361,165.255 245.279,164.834 246.174 C 163.368 249.287,162.328 254.416,162.105 259.628 L 161.891 264.656 162.999 265.528 L 164.108 266.400 200.431 266.400 L 236.755 266.400 237.377 265.511 C 238.237 264.284,238.238 256.613,237.379 253.587 C 237.038 252.384,236.576 250.500,236.354 249.400 C 236.132 248.300,235.720 247.220,235.438 247.000 C 235.156 246.780,234.800 245.970,234.647 245.200 C 233.721 240.526,221.959 227.609,218.622 227.601 C 217.936 227.599,215.200 225.502,215.200 224.978 C 215.200 224.696,215.785 224.100,216.500 223.654 C 219.930 221.514,226.792 212.909,226.802 210.735 C 226.804 210.441,227.104 209.660,227.469 209.000 C 228.764 206.661,228.483 193.304,227.065 189.800 C 225.701 186.428,224.237 183.966,222.533 182.173 C 221.837 181.440,221.160 180.503,221.029 180.092 C 220.899 179.681,220.164 179.045,219.396 178.679 C 218.628 178.312,218.000 177.850,218.000 177.651 C 218.000 177.043,213.136 174.198,210.140 173.053 C 207.003 171.855,197.505 171.251,193.444 171.993 M208.242 173.391 C 208.753 173.726,209.474 174.000,209.843 174.000 C 210.623 174.000,215.060 176.723,217.441 178.663 C 218.344 179.398,219.265 180.000,219.488 180.000 C 219.959 180.000,222.800 183.540,222.800 184.128 C 222.800 184.346,223.222 185.081,223.738 185.762 C 226.649 189.605,227.746 194.270,227.492 201.719 C 227.332 206.397,227.154 207.787,226.645 208.351 C 226.290 208.742,226.000 209.364,226.000 209.731 C 226.000 212.653,218.572 221.657,215.054 223.001 C 213.273 223.681,212.336 224.907,213.060 225.610 C 213.697 226.229,219.174 229.200,219.688 229.206 C 219.969 229.209,221.280 230.215,222.600 231.441 C 223.920 232.667,225.495 233.963,226.100 234.321 C 226.705 234.679,227.200 235.197,227.200 235.471 C 227.200 235.745,228.145 237.032,229.300 238.331 C 231.564 240.876,235.600 248.362,235.600 250.016 C 235.600 250.559,235.957 252.250,236.393 253.775 C 237.179 256.525,237.594 263.839,237.017 264.773 C 236.548 265.532,163.827 265.356,163.196 264.595 C 162.000 263.155,163.639 251.404,165.655 246.956 C 166.065 246.052,166.400 245.127,166.400 244.901 C 166.400 244.675,167.005 243.610,167.744 242.536 C 168.484 241.461,169.216 240.179,169.373 239.686 C 169.529 239.194,170.198 238.511,170.860 238.169 C 171.527 237.824,172.317 236.939,172.633 236.183 C 172.948 235.429,173.739 234.542,174.401 234.199 C 175.061 233.858,175.600 233.419,175.600 233.224 C 175.600 232.881,178.547 230.647,181.718 228.587 C 182.553 228.044,183.563 227.600,183.964 227.600 C 185.132 227.600,186.800 226.050,186.800 224.965 C 186.800 223.985,184.863 222.405,183.658 222.401 C 181.935 222.397,174.004 211.909,174.001 209.631 C 174.000 209.319,173.695 208.727,173.323 208.315 C 170.986 205.733,172.735 191.842,176.062 186.557 C 176.908 185.213,177.600 183.882,177.600 183.599 C 177.600 183.095,178.059 182.533,180.296 180.296 C 182.546 178.046,183.097 177.600,183.625 177.600 C 183.922 177.600,185.163 176.902,186.383 176.049 C 187.602 175.196,189.590 174.216,190.800 173.872 C 192.010 173.528,193.630 173.061,194.400 172.834 C 196.538 172.204,207.078 172.628,208.242 173.391 " stroke="none" fill="#78bcea" fill-rule="evenodd"></path><path id="path4" d="M196.000 47.085 C 192.253 47.387,184.119 49.268,181.800 50.368 C 180.071 51.188,178.550 51.565,176.359 51.718 C 173.078 51.946,166.858 54.325,162.631 56.968 C 161.514 57.667,159.790 58.579,158.800 58.995 C 155.803 60.256,150.531 63.891,149.125 65.668 C 148.396 66.589,146.919 68.165,145.842 69.171 C 142.185 72.587,140.202 74.650,139.212 76.070 C 138.668 76.849,137.761 77.752,137.195 78.077 C 136.544 78.450,135.976 79.301,135.649 80.393 C 135.365 81.342,134.063 83.745,132.756 85.732 C 130.997 88.406,130.037 90.431,129.061 93.524 C 128.275 96.012,127.353 98.107,126.783 98.699 C 125.116 100.431,124.698 101.967,123.186 111.899 C 121.851 120.664,122.509 129.122,124.603 130.121 C 127.135 131.328,128.547 131.357,131.065 130.250 C 133.581 129.146,138.281 128.208,143.400 127.791 C 152.658 127.036,156.703 125.225,156.780 121.800 C 156.840 119.091,158.620 111.278,159.426 110.178 C 159.919 109.505,160.385 108.433,160.461 107.794 C 160.538 107.155,160.974 106.227,161.432 105.732 C 161.889 105.236,162.915 103.519,163.711 101.915 C 165.766 97.778,172.273 91.551,178.095 88.152 C 179.913 87.091,181.994 85.824,182.720 85.336 C 183.446 84.848,185.028 84.243,186.235 83.993 C 187.442 83.742,190.258 82.921,192.493 82.169 C 197.674 80.424,198.696 80.416,207.200 82.060 C 212.832 83.148,219.874 85.826,221.664 87.559 C 224.295 90.108,230.019 93.999,231.136 94.000 C 231.843 94.000,233.092 95.460,233.865 97.191 C 234.207 97.956,235.007 99.338,235.643 100.263 C 236.280 101.188,236.800 102.130,236.800 102.358 C 236.800 102.586,237.347 103.396,238.016 104.157 C 238.879 105.140,239.339 106.197,239.599 107.792 C 239.800 109.029,240.493 110.977,241.140 112.120 C 242.398 114.348,243.200 117.438,243.200 120.059 C 243.200 121.995,244.196 124.262,245.306 124.857 C 246.045 125.252,246.085 125.196,245.813 124.143 C 245.651 123.514,245.372 121.650,245.193 120.000 C 244.772 116.121,243.954 112.695,242.862 110.237 C 242.382 109.158,241.876 107.563,241.737 106.694 C 241.598 105.825,241.137 104.728,240.713 104.257 C 240.289 103.786,238.832 101.690,237.476 99.600 C 234.874 95.592,229.627 90.083,227.200 88.812 C 226.430 88.408,225.350 87.683,224.800 87.200 C 224.250 86.717,223.116 85.971,222.281 85.543 C 221.445 85.114,220.661 84.502,220.538 84.182 C 220.415 83.862,219.839 83.596,219.257 83.591 C 218.676 83.586,217.390 83.211,216.400 82.756 C 206.387 78.160,187.272 79.011,179.600 84.394 C 179.050 84.780,177.790 85.502,176.800 86.000 C 175.810 86.497,174.239 87.600,173.309 88.452 C 172.379 89.303,171.372 90.000,171.071 90.000 C 170.770 90.000,170.198 90.360,169.800 90.800 C 169.402 91.240,168.846 91.600,168.565 91.600 C 168.284 91.600,167.932 92.005,167.784 92.500 C 167.636 92.995,166.833 94.120,166.001 95.000 C 163.497 97.647,159.897 103.209,158.889 105.988 C 158.368 107.425,157.705 108.870,157.416 109.200 C 157.127 109.530,156.685 110.778,156.434 111.973 C 156.183 113.168,155.783 114.379,155.546 114.665 C 155.308 114.951,154.996 117.097,154.851 119.433 C 154.522 124.738,154.288 124.998,149.508 125.378 C 147.689 125.523,145.390 125.809,144.400 126.014 C 137.687 127.404,129.524 128.751,126.808 128.916 C 124.117 129.079,123.447 120.761,125.439 111.919 C 125.801 110.313,126.300 107.920,126.549 106.600 C 126.797 105.280,127.112 104.020,127.247 103.800 C 127.383 103.580,127.716 102.454,127.987 101.299 C 128.259 100.143,128.630 99.105,128.814 98.991 C 128.997 98.878,129.428 97.822,129.770 96.645 C 130.112 95.468,130.664 94.279,130.996 94.003 C 131.328 93.728,131.600 93.334,131.600 93.129 C 131.600 92.667,132.983 89.417,133.867 87.800 C 135.999 83.901,136.690 82.834,138.070 81.309 C 138.911 80.379,139.600 79.399,139.600 79.131 C 139.600 78.863,140.143 78.094,140.807 77.422 C 141.472 76.750,143.497 74.596,145.307 72.635 C 149.872 67.692,149.963 67.600,150.300 67.598 C 150.465 67.597,151.285 66.967,152.122 66.198 C 152.975 65.415,154.065 64.800,154.600 64.800 C 155.242 64.800,155.728 64.446,156.078 63.724 C 156.365 63.132,157.254 62.277,158.054 61.824 C 158.853 61.371,160.203 60.536,161.054 59.969 C 163.291 58.478,168.530 55.899,172.200 54.482 C 173.300 54.057,175.212 53.317,176.448 52.838 C 177.685 52.359,179.395 51.870,180.248 51.751 C 181.102 51.633,182.160 51.384,182.600 51.197 C 187.030 49.320,211.767 49.173,216.133 50.998 C 216.926 51.329,218.075 51.599,218.687 51.598 C 219.299 51.597,221.060 52.033,222.600 52.567 C 224.140 53.100,226.386 53.839,227.592 54.207 C 228.797 54.575,230.248 55.207,230.816 55.612 C 231.384 56.016,232.325 56.466,232.908 56.613 C 233.491 56.759,234.177 57.131,234.433 57.439 C 234.689 57.748,235.281 58.002,235.749 58.004 C 236.217 58.007,237.757 58.817,239.171 59.804 C 240.585 60.792,241.951 61.600,242.205 61.600 C 242.460 61.600,243.315 62.320,244.105 63.200 C 244.895 64.080,245.818 64.800,246.157 64.800 C 246.495 64.800,246.964 65.158,247.198 65.596 C 247.432 66.034,248.165 66.672,248.827 67.014 C 250.038 67.640,255.591 73.132,255.597 73.710 C 255.599 73.880,256.022 74.180,256.539 74.377 C 257.055 74.573,257.780 75.372,258.151 76.152 C 258.521 76.933,259.153 77.803,259.555 78.086 C 259.956 78.369,260.408 78.989,260.558 79.464 C 260.708 79.940,261.289 80.629,261.849 80.995 C 262.409 81.362,263.127 82.285,263.445 83.047 C 263.763 83.808,264.648 85.300,265.411 86.363 C 266.174 87.425,266.909 88.846,267.044 89.521 C 267.179 90.196,267.540 90.845,267.845 90.962 C 268.150 91.079,268.400 91.425,268.400 91.731 C 268.400 92.037,268.931 93.282,269.580 94.499 C 270.229 95.715,271.141 98.202,271.606 100.025 C 272.072 101.848,272.711 103.709,273.026 104.159 C 273.342 104.609,273.608 105.883,273.618 106.989 C 273.627 108.095,273.901 109.720,274.225 110.600 C 275.348 113.647,276.040 125.991,275.210 128.174 C 274.447 130.180,275.457 129.159,276.772 126.595 C 278.067 124.071,278.094 123.919,277.654 121.728 C 277.404 120.484,277.200 118.343,277.200 116.969 C 277.200 115.594,276.843 113.331,276.405 111.936 C 275.968 110.541,275.608 108.399,275.605 107.175 C 275.602 105.748,275.301 104.332,274.767 103.226 C 274.309 102.277,273.831 100.849,273.706 100.051 C 273.510 98.803,269.760 90.984,268.784 89.788 C 268.599 89.561,267.930 88.031,267.297 86.388 C 266.026 83.086,263.721 79.504,261.941 78.065 C 261.305 77.550,260.500 76.560,260.153 75.865 C 259.589 74.733,258.165 73.145,252.924 67.800 C 249.944 64.761,246.187 61.778,242.400 59.445 C 240.310 58.157,238.150 56.793,237.600 56.414 C 236.265 55.494,232.851 54.000,232.084 54.000 C 231.747 54.000,230.703 53.551,229.766 53.001 C 227.838 51.871,223.255 50.674,217.481 49.792 C 215.325 49.463,212.545 48.836,211.303 48.400 C 208.691 47.482,200.162 46.749,196.000 47.085 M247.015 125.179 C 245.590 125.707,247.893 126.716,251.200 127.013 C 252.850 127.161,255.010 127.555,256.000 127.889 C 256.990 128.223,259.330 128.530,261.200 128.571 C 263.849 128.629,264.909 128.831,266.000 129.485 C 268.423 130.938,273.200 131.158,273.200 129.816 C 273.200 129.179,272.324 128.800,270.851 128.800 C 270.256 128.800,268.695 128.519,267.384 128.176 C 264.745 127.486,260.841 126.790,254.200 125.827 C 251.780 125.476,249.350 125.121,248.800 125.039 C 248.250 124.956,247.447 125.019,247.015 125.179 M183.840 132.294 C 183.788 132.345,180.068 132.584,175.573 132.823 C 159.865 133.659,156.983 133.896,154.616 134.546 C 153.305 134.906,151.325 135.211,150.216 135.224 C 149.107 135.237,147.300 135.413,146.200 135.615 C 145.100 135.817,141.230 136.439,137.600 136.997 C 133.970 137.556,130.157 138.370,129.126 138.807 C 128.095 139.243,126.512 139.600,125.609 139.600 C 123.293 139.600,118.542 140.638,115.759 141.753 C 113.471 142.669,109.608 143.648,103.000 144.987 C 101.240 145.344,98.630 146.164,97.200 146.809 C 95.770 147.455,93.105 148.544,91.277 149.229 C 86.867 150.884,84.569 152.952,84.995 154.884 C 85.154 155.608,85.416 167.540,85.575 181.400 C 85.831 203.705,85.942 206.779,86.537 208.160 C 86.907 209.019,87.496 211.719,87.846 214.160 C 88.196 216.602,88.926 220.310,89.469 222.400 C 90.012 224.490,90.611 227.792,90.800 229.739 C 91.066 232.465,91.376 233.627,92.151 234.797 C 92.704 235.633,93.437 237.397,93.779 238.717 C 94.121 240.037,94.925 242.351,95.566 243.859 C 96.206 245.366,97.221 248.310,97.819 250.400 C 98.418 252.490,99.391 254.920,99.981 255.800 C 102.118 258.989,103.478 261.846,103.914 264.065 C 104.223 265.636,104.847 266.974,105.953 268.436 C 106.830 269.595,108.118 272.055,108.816 273.904 C 109.624 276.044,110.798 278.162,112.048 279.733 C 113.128 281.090,114.541 283.017,115.188 284.016 C 115.835 285.015,117.009 286.365,117.796 287.016 C 118.795 287.843,119.406 288.813,119.822 290.232 C 120.670 293.127,123.591 296.972,125.937 298.282 C 127.426 299.113,128.158 299.899,129.191 301.777 C 131.310 305.626,140.774 314.400,142.808 314.400 C 143.023 314.400,143.200 314.814,143.200 315.320 C 143.200 317.323,150.272 324.351,152.969 325.028 C 153.519 325.166,154.455 325.730,155.051 326.282 C 155.646 326.834,156.959 327.629,157.967 328.049 C 158.975 328.469,160.430 329.503,161.200 330.347 C 163.080 332.409,171.477 338.594,173.950 339.740 C 175.042 340.246,176.586 341.231,177.381 341.930 C 178.177 342.628,179.077 343.200,179.381 343.200 C 179.685 343.200,179.993 343.335,180.067 343.500 C 180.280 343.981,182.879 345.110,184.370 345.369 C 185.123 345.500,187.631 346.714,189.944 348.065 C 196.697 352.013,198.565 352.313,204.513 350.407 C 207.157 349.560,208.571 348.865,209.393 348.007 C 210.139 347.229,210.946 346.800,211.666 346.800 C 214.112 346.800,218.657 344.673,222.000 341.965 C 222.990 341.163,224.944 339.907,226.342 339.175 C 227.740 338.443,229.139 337.455,229.451 336.979 C 229.763 336.503,230.769 335.775,231.686 335.361 C 232.604 334.947,233.773 334.190,234.284 333.679 C 234.796 333.168,236.246 332.298,237.507 331.745 C 239.107 331.044,240.707 329.828,242.800 327.722 C 246.936 323.560,247.344 323.220,251.200 320.713 C 253.070 319.497,255.230 317.839,256.000 317.030 C 257.860 315.074,258.012 314.932,259.353 313.925 C 259.988 313.448,260.931 312.100,261.448 310.929 C 262.144 309.357,262.604 308.800,263.209 308.800 C 264.473 308.800,265.820 307.734,267.941 305.054 C 269.010 303.705,270.556 301.895,271.378 301.034 C 272.199 300.172,273.596 298.319,274.483 296.916 C 275.369 295.513,276.928 293.728,277.947 292.950 C 279.573 291.709,282.000 288.562,282.000 287.695 C 282.000 287.526,282.814 286.600,283.808 285.636 C 284.956 284.524,286.174 282.700,287.146 280.642 C 287.987 278.859,289.121 276.950,289.666 276.400 C 292.921 273.114,295.602 268.007,296.203 263.946 C 296.397 262.635,296.934 261.539,298.039 260.203 C 298.897 259.163,299.600 257.981,299.600 257.575 C 299.600 256.498,302.636 248.159,303.591 246.615 C 304.826 244.616,306.676 239.919,307.003 237.951 C 307.164 236.988,307.557 235.687,307.878 235.061 C 308.199 234.434,308.785 231.824,309.181 229.261 C 309.577 226.697,310.361 223.070,310.925 221.200 C 311.488 219.330,312.159 215.730,312.416 213.200 C 312.673 210.670,313.034 208.317,313.218 207.971 C 313.942 206.610,314.154 157.653,313.449 154.684 C 312.372 150.150,312.049 149.760,308.923 149.216 C 306.169 148.736,300.285 146.654,299.200 145.774 C 298.572 145.266,292.985 144.400,290.329 144.400 C 289.383 144.400,287.922 143.940,286.558 143.212 C 285.333 142.558,283.672 141.914,282.866 141.781 C 282.059 141.648,279.510 141.028,277.200 140.404 C 271.448 138.849,267.169 138.000,265.080 138.000 C 264.116 138.000,262.444 137.726,261.364 137.392 C 260.284 137.057,257.600 136.617,255.400 136.413 C 253.200 136.209,249.870 135.664,248.000 135.201 C 244.440 134.321,241.824 134.045,226.400 132.929 C 218.538 132.360,184.285 131.849,183.840 132.294 M221.200 134.365 C 227.690 134.615,233.427 135.001,233.948 135.223 C 234.469 135.445,237.349 135.812,240.348 136.039 C 243.347 136.266,246.700 136.694,247.800 136.989 C 248.900 137.284,251.960 137.750,254.600 138.024 C 257.240 138.297,259.587 138.664,259.815 138.839 C 260.043 139.013,261.573 139.342,263.215 139.568 C 264.857 139.794,267.184 140.254,268.387 140.590 C 269.590 140.925,271.143 141.200,271.838 141.200 C 272.534 141.200,273.709 141.451,274.451 141.758 C 275.193 142.065,277.122 142.520,278.738 142.768 C 280.355 143.016,282.155 143.462,282.738 143.759 C 283.322 144.055,284.880 144.423,286.200 144.576 C 287.520 144.729,290.428 145.472,292.662 146.227 C 294.896 146.982,297.151 147.600,297.673 147.600 C 298.195 147.600,298.977 147.847,299.411 148.150 C 299.845 148.452,301.010 148.836,302.000 149.002 C 302.989 149.168,305.089 149.821,306.666 150.452 C 308.243 151.083,309.908 151.600,310.367 151.600 C 310.825 151.600,311.571 151.971,312.025 152.425 C 313.172 153.572,313.056 199.534,311.898 202.974 C 311.533 204.060,311.116 206.940,310.972 209.374 C 310.745 213.213,310.258 216.330,308.781 223.400 C 308.281 225.794,305.851 234.304,303.813 240.800 C 303.295 242.450,302.754 244.430,302.611 245.200 C 302.222 247.287,301.563 248.896,300.701 249.862 C 300.278 250.336,299.757 251.503,299.543 252.456 C 299.329 253.409,298.883 254.488,298.551 254.854 C 298.220 255.220,297.702 256.456,297.400 257.600 C 297.098 258.744,296.561 260.001,296.206 260.393 C 295.852 260.785,295.379 261.768,295.155 262.579 C 294.931 263.389,294.379 264.421,293.928 264.872 C 293.477 265.323,292.582 266.796,291.940 268.146 C 291.297 269.496,290.334 271.320,289.800 272.200 C 289.265 273.080,288.562 274.354,288.237 275.032 C 287.912 275.709,287.366 276.496,287.023 276.781 C 286.680 277.065,286.400 277.524,286.400 277.800 C 286.400 278.076,286.117 278.537,285.771 278.824 C 285.425 279.111,284.769 280.079,284.315 280.973 C 283.496 282.584,282.776 283.625,280.759 286.115 C 280.186 286.822,279.646 287.624,279.559 287.898 C 279.148 289.187,266.484 304.162,262.492 308.079 C 260.634 309.902,254.289 315.779,251.800 317.981 C 250.260 319.343,248.265 321.120,247.367 321.929 C 244.583 324.437,243.131 325.600,242.783 325.600 C 242.599 325.600,241.638 326.275,240.648 327.100 C 237.729 329.531,235.907 330.800,235.336 330.800 C 235.041 330.800,234.800 330.971,234.800 331.179 C 234.800 331.605,229.670 335.140,227.291 336.353 C 226.442 336.787,225.510 337.426,225.221 337.774 C 224.932 338.122,224.005 338.518,223.159 338.653 C 222.186 338.809,221.540 339.159,221.397 339.608 C 221.273 339.999,219.696 341.067,217.893 341.982 C 216.089 342.897,213.711 344.245,212.607 344.978 C 211.503 345.710,209.675 346.585,208.544 346.920 C 207.412 347.256,205.714 348.042,204.769 348.666 C 202.462 350.189,197.550 350.305,195.624 348.881 C 194.969 348.396,194.242 348.000,194.010 348.000 C 193.087 348.000,183.379 343.040,182.134 341.933 C 181.730 341.574,180.770 340.980,180.000 340.613 C 177.282 339.320,175.022 337.991,173.611 336.857 C 172.826 336.226,171.467 335.316,170.592 334.834 C 167.851 333.326,166.182 332.240,164.779 331.051 C 164.033 330.419,162.788 329.617,162.011 329.268 C 160.301 328.499,158.800 327.238,158.800 326.569 C 158.800 326.299,158.258 325.889,157.595 325.658 C 156.932 325.427,156.286 324.968,156.159 324.637 C 156.032 324.307,155.336 323.687,154.611 323.259 C 150.842 321.036,134.026 304.934,130.780 300.441 C 130.081 299.473,128.855 298.011,128.055 297.192 C 127.255 296.372,125.790 294.671,124.800 293.412 C 123.810 292.154,122.415 290.444,121.700 289.613 C 120.985 288.783,120.400 287.980,120.400 287.829 C 120.400 287.678,119.591 286.440,118.602 285.077 C 115.874 281.318,112.000 275.328,112.000 274.869 C 112.000 274.645,111.581 273.953,111.070 273.331 C 110.558 272.709,109.694 271.300,109.149 270.200 C 108.604 269.100,107.642 267.390,107.010 266.400 C 106.379 265.410,105.630 263.829,105.346 262.886 C 105.062 261.944,104.553 260.896,104.215 260.558 C 103.877 260.220,103.600 259.562,103.600 259.097 C 103.600 258.632,103.265 257.880,102.855 257.426 C 102.445 256.972,101.619 255.296,101.021 253.703 C 100.422 252.109,99.767 250.703,99.566 250.579 C 99.365 250.455,99.200 250.041,99.200 249.661 C 99.200 249.280,98.860 248.303,98.445 247.489 C 98.030 246.675,97.565 245.338,97.411 244.518 C 97.257 243.698,96.891 242.563,96.598 241.996 C 96.305 241.429,95.778 239.803,95.429 238.382 C 94.635 235.158,94.136 233.304,93.174 230.000 C 91.912 225.666,90.800 220.649,90.800 219.289 C 90.800 218.582,90.456 216.967,90.036 215.702 C 89.616 214.436,89.159 211.690,89.022 209.600 C 88.885 207.510,88.525 204.270,88.221 202.400 C 87.485 197.866,87.214 189.549,87.153 169.623 L 87.103 153.046 87.991 152.327 C 88.479 151.931,89.986 151.262,91.340 150.839 C 92.693 150.417,95.240 149.541,97.000 148.894 C 98.760 148.246,102.000 147.305,104.200 146.802 C 106.400 146.299,108.709 145.631,109.330 145.318 C 109.952 145.005,111.752 144.641,113.330 144.510 C 115.063 144.365,116.596 143.995,117.200 143.576 C 117.787 143.167,119.313 142.787,120.898 142.655 C 122.382 142.532,123.988 142.220,124.469 141.963 C 124.949 141.706,126.345 141.353,127.571 141.178 C 128.797 141.002,131.150 140.572,132.800 140.221 C 134.450 139.871,137.330 139.322,139.200 139.003 C 141.070 138.683,143.950 138.152,145.600 137.823 C 150.682 136.808,153.223 136.477,158.000 136.206 C 160.530 136.062,164.185 135.695,166.121 135.388 C 169.127 134.913,177.086 134.392,189.600 133.851 C 194.372 133.644,208.401 133.872,221.200 134.365 M194.800 173.532 C 194.470 173.730,193.320 174.006,192.245 174.146 C 190.897 174.321,189.470 174.940,187.645 176.142 C 186.190 177.100,184.598 178.011,184.107 178.166 C 183.070 178.495,178.403 183.040,178.393 183.732 C 178.390 183.989,177.574 185.550,176.580 187.200 C 173.727 191.939,173.149 194.329,173.158 201.366 C 173.162 204.647,173.319 207.437,173.507 207.566 C 173.695 207.695,174.803 209.600,175.970 211.800 C 177.136 214.000,178.745 216.545,179.545 217.455 C 180.345 218.366,181.316 219.571,181.703 220.134 C 182.089 220.697,183.493 221.646,184.823 222.242 C 187.040 223.237,188.000 224.114,188.000 225.143 C 188.000 225.801,185.586 228.000,184.863 228.000 C 183.502 228.000,178.080 231.533,175.503 234.100 C 175.116 234.485,174.641 234.800,174.447 234.800 C 174.252 234.800,174.003 235.147,173.892 235.571 C 173.710 236.265,173.920 236.225,175.995 235.171 C 177.262 234.527,178.413 234.000,178.553 234.000 C 179.041 234.000,187.007 228.668,187.700 227.877 C 189.220 226.141,188.677 222.279,186.700 220.767 C 182.706 217.714,179.226 213.885,178.560 211.813 C 178.204 210.706,177.466 209.137,176.921 208.327 C 174.305 204.443,174.626 195.626,177.550 191.015 C 178.238 189.929,179.017 187.997,179.281 186.721 C 179.692 184.728,179.968 184.263,181.231 183.427 C 182.040 182.892,183.091 181.823,183.568 181.052 C 184.294 179.877,184.781 179.578,186.567 179.207 C 187.740 178.963,189.560 178.219,190.611 177.552 C 195.744 174.297,202.765 173.801,207.916 176.329 C 208.732 176.729,210.199 177.309,211.176 177.617 C 212.194 177.939,213.817 178.977,214.976 180.047 C 216.089 181.075,217.672 182.492,218.494 183.195 C 219.468 184.027,220.144 185.051,220.435 186.131 C 220.681 187.043,221.573 188.782,222.418 189.995 C 224.591 193.116,225.748 196.428,225.474 198.747 C 224.691 205.374,223.647 208.946,221.837 211.200 C 221.572 211.530,221.162 212.250,220.926 212.800 C 220.435 213.944,216.560 218.757,214.551 220.719 C 211.130 224.060,214.500 223.351,218.270 219.937 C 220.964 217.497,221.949 216.232,223.514 213.200 C 224.139 211.990,224.858 210.640,225.113 210.200 C 228.041 205.131,227.794 195.498,224.569 189.000 C 221.634 183.088,220.162 180.800,219.291 180.798 C 218.911 180.797,217.961 180.212,217.180 179.498 C 215.690 178.135,212.613 176.000,212.140 176.000 C 211.988 176.000,211.579 175.762,211.231 175.472 C 209.176 173.754,196.853 172.299,194.800 173.532 M212.400 226.587 C 212.400 227.897,213.494 228.903,216.479 230.336 C 218.306 231.213,220.375 232.441,221.079 233.065 C 221.782 233.689,223.132 234.757,224.079 235.438 C 225.415 236.398,225.909 237.080,226.283 238.480 C 226.826 240.510,229.559 244.216,230.995 244.871 C 232.741 245.666,233.588 248.999,233.701 255.520 C 233.844 263.755,237.628 262.860,203.800 262.597 C 188.400 262.477,174.396 262.389,172.679 262.400 C 168.442 262.427,166.483 261.869,166.149 260.540 C 165.475 257.853,167.052 250.159,168.802 247.600 C 169.178 247.050,169.557 246.420,169.643 246.200 C 169.729 245.980,170.557 244.540,171.482 243.000 C 172.407 241.460,173.291 239.400,173.446 238.423 L 173.727 236.647 172.250 238.123 C 171.438 238.935,170.613 239.600,170.418 239.600 C 170.222 239.600,169.859 240.216,169.611 240.968 C 169.362 241.720,168.932 242.524,168.654 242.755 C 165.757 245.159,162.053 262.053,163.997 263.997 C 164.825 264.825,230.509 265.264,235.000 264.472 L 236.600 264.189 236.726 261.595 C 236.907 257.880,234.333 246.088,233.148 245.200 C 233.001 245.090,232.296 243.920,231.581 242.600 C 230.866 241.280,229.407 239.266,228.340 238.124 C 227.273 236.982,226.400 235.789,226.400 235.472 C 226.400 235.156,225.860 234.673,225.200 234.400 C 224.540 234.127,224.000 233.759,224.000 233.584 C 224.000 233.409,223.379 232.882,222.621 232.413 C 221.862 231.944,221.134 231.222,221.003 230.808 C 220.865 230.373,220.223 229.940,219.482 229.782 C 218.777 229.631,218.020 229.366,217.800 229.192 C 216.748 228.363,212.400 226.265,212.400 226.587 " stroke="none" fill="#3180bb" fill-rule="evenodd"></path></g></svg>